<svg xmlns="http://www.w3.org/2000/svg" viewBox="0 0 365 418" id="logo">
    <path d="M0 207.8q0-50.06.07-100.1a4.83 4.83 0 0 1 1.76-3.53c7.17-4.61 14.33-9.11 21.6-13.44C41.65 79.88 59.88 69 78.19 58.36 100.28 45.49 122.47 32.8 144.6 20c11.33-6.56 22.6-13.24 34-19.74a3.83 3.83 0 0 1 3.19.24Q224 24.83 266.22 49.33 307.11 73.09 347.91 97c4.82 2.83 9.55 5.84 14.14 9a5.42 5.42 0 0 1 2.05 3.84q.15 99.54 0 199.1a5.47 5.47 0 0 1-2.26 4c-19.11 11.27-38.34 22.36-57.51 33.55-10.45 6.1-20.8 12.37-31.26 18.47-18.64 10.86-37.35 21.61-56 32.48q-16.48 9.62-32.8 19.53c-2.49 1.52-4.08 1.42-6.62-.19-11-7-22.31-13.7-33.52-20.46-17.62-10.64-35.2-21.33-52.89-31.83Q54.88 343 18.37 321.69c-5.37-3.15-11-5.93-16.26-9.19a5.77 5.77 0 0 1-2-4.22c-.19-8-.08-16-.08-24Q0 246 0 207.8Zm21.2 93.12c3.41 1.4 6.68 2.34 9.54 4q27.4 15.69 54.65 31.66c13 7.62 25.9 15.44 38.86 23.15 18.1 10.78 36.27 21.43 54.25 32.41 2.42 1.47 4 1.7 6.24.32 10.71-6.6 21.42-13.22 32.22-19.67a6 6 0 0 0 3.33-5.93c-.1-32 0-64 0-96q0-50.06.08-100.12c0-2.32-.51-3.69-2.75-4.93-15.93-8.85-31.73-17.91-47.59-26.88-1.09-.62-2.29-1-3.57-1.61v65.18h31v27c-8.63 0-17 .07-25.34-.07a11.93 11.93 0 0 1-5.3-1.37c-7.57-4.07-14.83-8.77-22.62-12.37-4.34-2-5.71-4.5-5.67-9 .15-16.62 0-33.25 0-49.87v-4.51c-4.05 2.61-7.63 4.82-11.12 7.17q-19.68 13.27-39.27 26.67a4.4 4.4 0 0 0-1.6 3c-.3 4.49-.45 9-.4 13.48a3.88 3.88 0 0 0 1.67 2.84c13.77 7.8 27.61 15.47 41.41 23.21q34.18 19.2 68.21 38.32v103.29c-3.8-2.05-7.1-3.73-10.31-5.58q-32.4-18.69-64.74-37.45c-12.3-7.14-24.49-14.45-36.78-21.6-9-5.27-18.18-10.39-27.27-15.6-1.62-.93-2.77-1-4.49.37-5.45 4.35-11.11 8.46-16.9 12.36a6.1 6.1 0 0 1-5.1.54c-4.74-2.29-9.17-5.11-7.42-11.7.25-.94-.23-2.08.08-3 .56-1.6 1.05-3.63 2.27-4.51 6.79-4.86 13.77-9.46 20.73-14.07 3.85-2.56 7.53-6.65 12.65-1.4V125.23c-4.38 3.06-8.13 6.23-12.36 8.51-5.74 3.09-6.92 7.56-6.87 13.73.25 29 0 58-.05 87 0 1.3 0 3.23-.8 3.79-5 3.57-10.15 6.83-15.57 10.4v-65.65c0-16.38 0-32.76-.37-49.12-.07-3.22.51-5.3 3.09-7.22 10.51-7.79 20.9-15.74 31.31-23.65.52-.4 1.2-1 1.22-1.55.11-3 0-6 0-9.14L21.24 115.8Zm293.49-27.81c8.95-6.18 17.43-12 25.84-17.93a3.74 3.74 0 0 0 1.15-2.71q0-40.68-.17-81.36a4.49 4.49 0 0 0-2.18-3.21c-14.92-7.81-30.05-15.21-44.84-23.25-16.39-8.94-32.49-18.39-48.75-27.65-13.09-7.51-26.09-15.17-39.16-22.7-12.09-7-24.22-13.85-36.4-20.81V49.62c57.63 31.11 113.22 64.62 171.43 94.31 0-8.59.08-16.55-.1-24.51 0-1-1.23-2.39-2.24-3-14.56-8.93-29.12-17.87-43.81-26.57-22-13-44.11-25.82-66.15-38.74-15.59-9.11-31.14-18.36-46.78-27.43a4.66 4.66 0 0 0-3.85 0c-4.38 2.36-8.6 5-12.89 7.58q-38.85 22.89-77.66 45.86a4.62 4.62 0 0 0-2 3.25C86 99.61 86 118.85 86 138.1v21.61c6.54-4.74 12.31-9 18.16-13.16 10.9-7.7 21.87-15.31 32.74-23a4.14 4.14 0 0 0 1.63-2.82c0-16.12-.18-32.24-.16-48.36a5.51 5.51 0 0 1 1.85-3.92c7.66-5.6 15.46-11 23.24-16.41a17.72 17.72 0 0 1 2.78-1.26v4.94c.19 17.11.34 34.22.66 51.33a4.54 4.54 0 0 0 2 3.22c20.92 11.86 42 23.49 62.88 35.4C256.91 160 281.89 174.55 307 189c9 5.16 18.07 10.09 27 15.25 1.5.86 3.75 2.3 3.79 3.53.33 8.88.18 17.77.18 26.67l-23.24-14.35Zm26.95 3.12-91.45 61.24c0-4.43.4-7.93-.08-11.31-1-7.11 1.07-12.05 7.5-16 10.5-6.44 20.36-13.93 30.74-20.58 2.24-1.44 2.87-2.52 2.86-5-.11-25.22-.07-50.44-.07-75.89l-43.32-25.51V357c7.56-4.54 14.88-9 22.23-13.33 14.47-8.57 29-17.06 43.43-25.67 8.77-5.22 17.46-10.58 26.12-16a4.19 4.19 0 0 0 1.95-2.75c.2-7.25.13-14.61.13-23.02Zm-255-42.69a3.6 3.6 0 0 0-.33.85c-.11 15.49-.26 31-.23 46.47 0 1 1.16 2.31 2.13 2.87q32.3 18.84 64.68 37.51c5.73 3.31 11.54 6.5 17.68 9.95v-49.27Z" data-name="Capa 1"/>
</svg>