<svg xmlns="http://www.w3.org/2000/svg" viewBox="0 0 47.91 41.17" id="air_conditioner">
    <path d="M47.91 17.22a13.17 13.17 0 0 1-.91 2.25 4.83 4.83 0 0 1-4.24 2.23H5.36a5.14 5.14 0 0 1-5.21-4A6.1 6.1 0 0 1 0 16.4V5.31A5.15 5.15 0 0 1 5.32 0H42.5a5.11 5.11 0 0 1 5.34 4.37s0 .08.07.12Zm-24 1.49H42.5a2.17 2.17 0 0 0 2.41-2.39V5.42A2.18 2.18 0 0 0 42.48 3h-37A2.18 2.18 0 0 0 3 5.42v10.85a2.18 2.18 0 0 0 2.45 2.44ZM32.19 30.22v5.38a2.62 2.62 0 1 0 5.24-.18 2.64 2.64 0 0 0-2.57-2.48 1.5 1.5 0 0 1-1.43-2.08 1.53 1.53 0 0 1 1.49-.92 5.61 5.61 0 1 1-5.72 5.64V24.82a1.49 1.49 0 0 1 1.5-1.61 1.51 1.51 0 0 1 1.49 1.63ZM21 28.79v3.88a4.49 4.49 0 0 1-9 .08 1.5 1.5 0 0 1 1.4-1.65 1.52 1.52 0 0 1 1.6 1.51 1.5 1.5 0 1 0 3-.1V24.8a1.5 1.5 0 1 1 3 0v4ZM23.21 28.45v-3.56a1.5 1.5 0 1 1 3 0V32a1.5 1.5 0 1 1-3 0Z"/><path d="M24 16.47H9.5a1.5 1.5 0 0 1-1.55-2 1.45 1.45 0 0 1 1.29-1 3 3 0 0 1 .42 0h28.59a3 3 0 0 1 .6 0 1.51 1.51 0 0 1 1.2 1.57 1.52 1.52 0 0 1-1.41 1.38h-.6ZM40.4 4.49A1.5 1.5 0 1 1 38.93 6a1.51 1.51 0 0 1 1.47-1.51Z"/>
</svg>