<svg xmlns="http://www.w3.org/2000/svg" viewBox="0 0 408.84 349.14" id="apartment_category">
    <path d="M0 341.1c2-3.1 4.79-4.1 8.45-4.1 10 .18 20 .06 30 .06h4.3c0-7 .15-13.66-.17-20.26 0-1-2.12-2.33-3.49-2.77-11.91-3.8-20-11.55-23.46-23.52-3.8-13.09-.77-25 9-34.45 10-9.69 22.05-12.25 35.42-8.19.89.27 1.75.63 2.63.94.1 0 .24 0 .65-.15V37.84C50 36.41 48.6 34.83 48.6 21.32c0-3.73-.07-7.46 0-11.18C48.81 4.29 52.92.25 58.79 0H222.09c9.09 0 12.74 3.66 12.75 12.77v13.18c0 7.56-3.91 11.43-11.54 11.6-1 0-2.06.13-3.28.22-.07 1.08-.19 2-.2 2.89v13.65h127.91c8.88 0 12.54 3.66 12.56 12.53v11.59c0 9.37-2.44 12.27-12 13.84V199.6c-.2 3.83-2.42 6.33-5.7 6.45s-5.77-2.36-6.18-6.05a35.38 35.38 0 0 1-.08-4V92.07H219.8v20.75a73.13 73.13 0 0 1-.2 8c-.33 2.84-2.2 4.49-5.06 4.78s-5.26-1-6.13-3.91a18.63 18.63 0 0 1-.57-5.12V37.78H75.52v4.93q0 105.83.1 211.67a15.12 15.12 0 0 0 2.38 7.67c7 10.93 7 26.53 0 37.46a15.88 15.88 0 0 0-2.34 7.68c-.29 8.37-.11 16.77-.11 25.15v4.49h132.3V152.05a22.58 22.58 0 0 1 .52-5.52 5.29 5.29 0 0 1 6-4.19 5.4 5.4 0 0 1 5.3 5 38.12 38.12 0 0 1 .16 4.78v184.65h116.5c0-7.5-.08-14.9 0-22.31.08-5.71-.54-10.73-4-16-8.14-12.3-6.7-27.08 2.2-39.15a9.26 9.26 0 0 0 1.71-5c.18-8.11 0-16.24.12-24.36.08-5 3.64-8 7.6-6.76 3.08 1 4.35 3.25 4.34 6.4v18.76c3.2-.66 6.08-1.42 9-1.82A34.5 34.5 0 0 1 371.24 314c-2.65.73-3.64 1.82-3.53 4.63.22 6 .06 12 .06 18.49h33.66c4.67 0 7.44 2.35 7.41 6s-2.79 5.93-7.5 5.93h-69.87q-161.12 0-322.22.05c-3.83 0-7.13-.49-9.25-4.05ZM222.68 12.21H60.87v13.14h161.81ZM220 79.65h128v-13.1H220ZM54.58 302.39c11.56-2.92 18.22-13.74 16.48-25.55-1.62-11-12.49-19.54-23.76-18.72a22.69 22.69 0 0 0-21.24 22.34c-.27 10.3 7.48 20.56 16.8 21.57 0-2.41-.15-4.79 0-7.14.26-3.4 2.3-5.33 5.65-5.61 3.08-.27 5.66 2.14 6 5.65.26 2.34.07 4.71.07 7.46Zm313.06 0c11.49-2.79 18.2-13.65 16.49-25.49-1.57-10.82-12.18-19.37-23.33-18.79a22.69 22.69 0 0 0-21.67 22.33c-.3 10.29 7.36 20.47 16.78 21.65 0-2.42-.18-4.8 0-7.14.35-3.51 2.92-5.91 6-5.65 3.35.28 5.39 2.2 5.65 5.61.22 2.33.08 4.7.08 7.46ZM63.22 336.88v-24.35a59.55 59.55 0 0 0-6.36 2.07c-.87.38-2 1.47-2 2.26-.17 6.6-.1 13.2-.1 20Zm285.23 0h7.33v-15.72c0-6.72 0-6.72-7.33-7.73Z"/><path d="M142 51h30.32C180.2 51 184 54.79 184 62.75q.07 25.94 0 51.87c0 7.64-4 11.58-11.52 11.59h-61.83c-7.06 0-11.27-4-11.31-11q-.18-26.53 0-53.06c0-7.17 4.07-11.08 11.17-11.12C121 50.93 131.52 51 142 51Zm29.75 54.75h-53.52c-7.62 0-7.62 0-6.77 7.74 0 .21.33.39.38.44h59.93Zm-60.17-42.62v30.33h12.07V63.13Zm48 0v30.35h12.1V63.14Zm-23.37 0v30.29h10.84V63.16ZM141.79 139.64h30.72c7.62 0 11.48 3.85 11.5 11.55q.11 26.13 0 52.26c0 7.55-4.08 11.41-11.7 11.42h-61.43c-7.32 0-11.5-3.95-11.54-11.21q-.15-26.34 0-52.67c0-7.41 4-11.31 11.35-11.34 10.36-.05 20.73-.01 31.1-.01Zm30.05 54.75h-53.66c-7.65 0-7.65 0-6.7 7.78 0 .11.16.21.41.52h60Zm-48.13-12.23v-30.27h-12.2v30.27Zm48.05 0v-30.27h-12.2v30.26Zm-24.71 0V152h-10.79v30.2ZM171.84 291.39v-8h-60.17v8.17h8.53c6 0 12-.09 18 .05 3.79.09 6.29 2.6 6.34 5.87a5.83 5.83 0 0 1-5.79 6c-10.12.16-20.23.19-30.34 0-4.33-.1-7.93-3.76-8.73-8.06a25.38 25.38 0 0 1-.33-4.36v-50.33c0-8.6 3.8-12.37 12.38-12.38h60.29c8.21 0 12 3.73 12 11.86q.07 25.75 0 51.52c0 8.07-3.94 11.85-12.06 11.88h-4c-4.36-.15-6.93-2.43-6.88-6.07s2.53-5.68 6.67-5.89Zm-48.12-20.57v-30.29h-12.21v30.29Zm48 0v-30.28h-12v30.32Zm-24.58-30.39h-10.83v30.27h10.87ZM270.82 126.62c0 4.52.1 9 0 13.56a9.9 9.9 0 0 1-9.86 9.95c-5.85.16-11.71.15-17.55 0a10 10 0 0 1-10-9.91q-.33-14 0-27.93c.14-5.82 4.49-9.86 10.35-10q8.37-.19 16.75 0c6.08.13 10.2 4.29 10.33 10.35.1 4.65 0 9.31 0 14Zm-12.15-12.1H245.5v23.42h13.17ZM319.55 126.6c0 4.53.09 9.05 0 13.57a9.9 9.9 0 0 1-9.85 10c-5.85.16-11.71.15-17.55 0a9.94 9.94 0 0 1-10-9.9q-.33-14 0-27.93c.13-5.81 4.48-9.87 10.33-10 5.58-.13 11.17-.12 16.76 0 6.08.13 10.2 4.29 10.33 10.33.06 4.62-.02 9.33-.02 13.93Zm-12.18-12h-13.09V138h13.09ZM270.84 182.37c0 4.39.07 8.78 0 13.17-.11 6.14-4.12 10.35-10.16 10.5-5.72.15-11.44.16-17.16 0s-9.95-4.19-10.09-9.82a569.3 569.3 0 0 1 0-28.33c.15-5.6 4.57-9.57 10.2-9.69s11.44-.12 17.16 0 9.9 4.32 10 10.19c.13 4.67.04 9.32.05 13.98Zm-25.23-12.11v23.6h12.94v-23.6ZM319.56 182.35c0 4.39.06 8.79 0 13.17-.12 6.16-4.11 10.37-10.15 10.52-5.71.15-11.44.16-17.16 0s-10-4.18-10.1-9.81c-.24-9.43-.25-18.89 0-28.33.14-5.59 4.56-9.58 10.18-9.7s11.44-.12 17.16 0 9.84 4.3 10.07 10.18v.79Zm-12.2 11.56v-23.46h-13.12v23.46ZM270.83 238.12c0 4.53.09 9 0 13.57-.13 5.88-4.17 10.06-10 10.23s-11.44.16-17.16 0a10.07 10.07 0 0 1-10.25-10.08c-.21-9.18-.2-18.36 0-27.54.12-6.06 4.44-10.11 10.51-10.21 5.59-.09 11.17-.1 16.76 0a9.94 9.94 0 0 1 10.17 10c.06 4.72-.03 9.38-.03 14.03Zm-25.19-11.94v23.54h12.89v-23.54ZM319.54 238c0 4.66.1 9.31 0 14a9.89 9.89 0 0 1-9.85 10c-5.85.19-11.71.18-17.56 0a10 10 0 0 1-10-9.93q-.33-14 0-27.93c.14-5.85 4.48-9.85 10.34-9.95q8.39-.17 16.76 0c6.07.11 10.2 4.24 10.33 10.31.09 4.52 0 9.05 0 13.57Zm-12.27 11.9v-23.6h-12.94v23.58ZM270.84 293.92c0 4.52.07 9 0 13.57-.13 6.06-4.22 10.2-10.32 10.35-5.59.13-11.18.14-16.76 0-6-.16-10.27-4.33-10.38-10.4q-.24-13.57 0-27.14c.11-6.08 4.41-10.21 10.41-10.31 5.59-.09 11.18-.1 16.76 0 6 .11 10.15 4.27 10.28 10.36.08 4.52.01 9.04.01 13.57Zm-25.41 11.77h13.18v-23.4h-13.18ZM319.56 294c0 4.39.05 8.78 0 13.17-.1 6.38-4.09 10.57-10.36 10.72-5.58.13-11.17.14-16.75 0a10.16 10.16 0 0 1-10.35-10.42q-.24-13.57 0-27.14c.12-6.08 4.43-10.18 10.45-10.28 5.58-.09 11.17-.1 16.76 0 6 .11 10.12 4.28 10.25 10.39.07 4.46-.01 8.98 0 13.56Zm-12.16-11.82h-13.08v23.47h13.08Z"/>
</svg>