<svg xmlns="http://www.w3.org/2000/svg" viewBox="0 0 384 384" id="bed">
    <path stroke-width="10" stroke="#89725b" d="M381.82 214a80.1 80.1 0 0 0-20-37.56 8.41 8.41 0 0 1-2.43-6.31q.11-57.93 0-115.87c-.05-25.95-16.32-47-40.91-52.79a57.19 57.19 0 0 0-13-1.4Q191.18 0 76.82 0C46.39.06 23.18 23.14 23.06 53.64c-.15 39.25-.06 78.5 0 117.74a9.74 9.74 0 0 1-2.66 7A80.69 80.69 0 0 0 .66 222.47a11.56 11.56 0 0 1-.66 2.07v104.27c2.12 7.87 5.53 14.95 12.43 19.82 9.84 6.92 20.41 8.05 31.18 2.87 10.93-5.26 16.67-14.34 17.2-26.54.15-3.23 0-6.47 0-10h262.32c0 2.47.1 4.93 0 7.38a30.4 30.4 0 0 0 26.16 31.92c16.67 2.07 29.86-7.51 34.17-24.52a3.6 3.6 0 0 1 .56-.93V224.54c-.74-3.54-1.4-7.04-2.2-10.54ZM38 54.85c0-20.07 12.08-35.33 30.88-39.11a47.51 47.51 0 0 1 9.32-.69Q191.3 15 304.34 15c20.58 0 36 12.4 39.55 31.73a45.52 45.52 0 0 1 .53 7.84v103.5c0 1.07-.13 2.14-.21 3.41-4.55-2.1-8.89-3.94-13-6.15-.8-.43-1.16-2.27-1.19-3.48-.3-9.36.24-18.8-.82-28.07-2.08-18.12-18.12-33.08-36.31-33.52-23.48-.57-47-.43-70.47-.12-12.51.16-22.35 6.33-30.27 16.24-.86-.9-1.62-1.65-2.33-2.45-7.56-8.57-17-13.7-28.46-13.82-23-.26-46-.51-69 .09-21.34.55-37.64 17.69-38.23 39.06-.2 7.49-.14 15 0 22.5 0 2.32-.61 3.52-2.84 4.46-4.34 1.8-8.5 4-13.09 6.26-.06-1.39-.16-2.58-.16-3.77Q38 106.79 38 54.85Zm276.47 95.34H200.08c0-9.05-.87-17.25.21-25.19a23.09 23.09 0 0 1 22.63-19.81q34.1-.56 68.21 0a23.35 23.35 0 0 1 23.2 21c.95 8.03.18 16.32.18 24ZM69.7 125.62c1.67-11.45 11.1-20.2 22.56-20.4q34.47-.6 69 0c12.12.22 22 10 23 22.1.61 7.3.11 14.69.11 22.92H69.06v-6.3c.16-6.12-.24-12.32.64-18.32Zm-49.31 80.6c12.36-26.5 33.25-41 62.53-41.21 72.74-.43 145.49-.3 218.23-.08 38.22.12 67.7 30.13 67.85 68.35v21.6H15.06c.11-16.69-1.88-33.21 5.33-48.66Zm25 121.37c-1.25 7.42-8.2 12.3-15.86 11.92a15.15 15.15 0 0 1-14.35-13.31c-.39-3.67-.06-7.41-.06-11.35h30.43c0 4.38.56 8.67-.13 12.74Zm-30.23-28.23v-29.48h353.68v29.48ZM368 329.14c-1.86 7.23-9.3 11.3-17 10.22a15.18 15.18 0 0 1-12.81-14.42c-.13-3.23 0-6.47 0-10.12h31.13c-.41 4.86-.15 9.77-1.32 14.32Z" data-name="Capa 1"/>
</svg>