<svg xmlns="http://www.w3.org/2000/svg" viewBox="0 0 371.96 408.74" id="building_category">
    <path  d="M4.73 408.74C3.21 406.84 1 405.17.29 403c-1.3-3.75 2-7.61 6.26-7.86 3.7-.21 7.42 0 11.77 0v-256c0-8.68 1.91-10.61 10.5-10.62h53.85V73.94c0-7.61 2.07-9.64 9.77-9.67h17.72V37.02c0-7.27 2.2-9.45 9.58-9.48s14.9 0 22.35 0h4.8V11.33a38.22 38.22 0 0 1 .1-4.79A7.07 7.07 0 0 1 153.85 0c3.73 0 6.57 2.77 6.73 7 .19 5.18.08 10.38.09 15.57v4.73c1.71.08 3.12.22 4.53.22 8 0 16-.07 24 .05 5.87.08 8.17 2.43 8.23 8.32.08 7.85 0 15.7 0 23.55V64h13.92V51.58c0-5.59-.09-11.18.06-16.77.12-4.53 2.39-6.78 6.86-7.19 1.32-.12 2.66-.09 4-.09h120.51c9.2 0 10.86 1.69 10.86 11V395c3.21 0 6.1.09 9 0 4-.14 7.54.52 9 4.9s-1.33 6.66-4.35 8.83Zm334.91-13.93V41.6H225.29V211h22.28c1.4-6.39 3.36-8.79 7.13-8.91s5.8 2.18 7.73 9h12.75c.21-1.18.34-2.23.59-3.24.87-3.64 3.81-6 7.08-5.76 3.46.26 5.91 2.76 6.31 6.57a47.8 47.8 0 0 1 .13 4.79v176.42c0 1.65.17 3.31.26 4.92Zm-275.33 0v-4.49c0-8.11-.09-16.23 0-24.34.08-4.88 2.38-7.54 6.86-7.59q18.35-.22 36.71 0c4.34.05 6.73 2.89 6.88 7.66.14 4.39 0 8.78 0 13.17v15.53h31.72V142.6H32.28v252.2Zm96.62-169.63v169.63h114.28V225.17Zm.31-87.36c6.55 0 12.92-.09 19.28 0 4.74.09 7.76 2.91 7.72 6.85s-3.11 6.66-7.83 6.86c-2.66.11-5.32 0-8 0h-11.74c0 6.79.16 13-.07 19.24-.11 3.07 1 3.87 3.9 3.77 5.58-.18 11.18-.16 16.76 0 4.19.15 7 3 7 6.75 0 3.44-2.7 6.35-6.56 6.84a38 38 0 0 1-4.78.1h-16.25c0 6.57.17 12.67-.07 18.75-.13 3.28.82 4.34 4.2 4.29q21-.27 41.91 0c3.64 0 4.67-.94 4.66-4.64-.13-41.37-.08-82.75-.08-124.12v-4.14H96.75v50.16h52.91c8.54 0 9.62.82 11.58 9.28ZM124.11 64h59.23V41.64h-59.23Zm-42 330.9a5.27 5.27 0 0 0 .43-1.13c0-2.92 0-5.84.12-8.76.15-5.38 2.71-8.35 7-8.24 4.11.1 6.61 3.12 6.72 8.25.07 3.28 0 6.55 0 10.13l4.28-.37v-22.5H78.34v22.58Z"/><path d="M317 213.69a43.39 43.39 0 0 1-.49 5.94 6.54 6.54 0 0 1-7 5.27c-3.53-.47-6-2.41-6.23-6.14a80.73 80.73 0 0 1-.05-10 6.76 6.76 0 0 1 6.58-6.71 7 7 0 0 1 6.94 6.41 44.75 44.75 0 0 1 0 5.18ZM289.38 122.14c-.11 1.61-.09 3.49-.37 5.31a6.22 6.22 0 0 1-6.31 5.55c-3.17.17-6.1-1.4-6.53-4.67a54.53 54.53 0 0 1-.1-13c.39-3.47 3.31-5.2 6.68-5a6.29 6.29 0 0 1 6.34 6c.2 1.83.19 3.67.29 5.81ZM317 305.67a41.18 41.18 0 0 1-.45 5.77 6.57 6.57 0 0 1-7 5.33c-3.54-.43-6-2.38-6.27-6.1a77.86 77.86 0 0 1 0-10.36 6.52 6.52 0 0 1 6.49-6.31c3.59.08 6.08 1.95 6.81 5.54a42.66 42.66 0 0 1 .42 6.13ZM303.29 121.17a44.82 44.82 0 0 1 0-4.78c.39-3.72 2.76-5.66 6.28-6.11a6.32 6.32 0 0 1 6.91 5.33 52.62 52.62 0 0 1 .06 11.9c-.41 3.62-3.18 5.47-6.76 5.55-3.41.08-6.16-2.67-6.51-6.31-.17-1.84 0-3.72 0-5.58ZM248 121.63c.08-1.86 0-3.74.27-5.57a6.26 6.26 0 0 1 6.17-5.73c3.38-.26 6.33 1.41 6.8 4.85a52.48 52.48 0 0 1 .1 12.65 6.19 6.19 0 0 1-7 5.2c-3.51-.52-5.85-2.48-6.17-6.22-.14-1.71 0-3.45 0-5.18ZM261.91 75.82a37.56 37.56 0 0 1-.48 5.93c-.83 3.53-3.22 5.48-6.92 5.26s-6-2.33-6.27-6a71.51 71.51 0 0 1 0-10.35 6.36 6.36 0 0 1 6.46-6.25 6.55 6.55 0 0 1 6.91 5.83 37 37 0 0 1 0 5.57ZM303.27 75.82c0-1.73-.14-3.47 0-5.18.37-3.65 2.44-5.8 6.13-6.17s6.72 1.76 7.15 5.42a52.11 52.11 0 0 1 0 11.51 6.37 6.37 0 0 1-7 5.64c-3.54-.19-6-2.62-6.33-6.44-.14-1.58 0-3.19 0-4.78ZM317 167.9a33.64 33.64 0 0 1-.46 5.77c-.86 3.51-3.27 5.44-7 5.2s-5.94-2.37-6.23-6a70 70 0 0 1 0-10.34c.24-3.65 2.42-5.81 6.11-6.17a6.46 6.46 0 0 1 7.19 5.45 45.75 45.75 0 0 1 .39 6.09ZM303.27 259.52c0-1.72-.14-3.46 0-5.17.38-3.66 2.48-5.79 6.15-6.16a6.27 6.27 0 0 1 7.14 5.46 53.27 53.27 0 0 1 0 11.5c-.39 3.68-3.47 5.79-7.05 5.6s-6-2.62-6.3-6.45c-.14-1.58 0-3.18 0-4.78ZM303.28 350.88a42.13 42.13 0 0 1 0-4.77c.43-3.65 2.55-5.76 6.23-6.07a6.28 6.28 0 0 1 7.06 5.57 52.64 52.64 0 0 1 0 11.5 6.24 6.24 0 0 1-7.12 5.47c-3.68-.34-5.79-2.47-6.16-6.13-.16-1.84-.01-3.71-.01-5.57ZM261.89 167.45a45 45 0 0 1-.39 5.94 6.41 6.41 0 0 1-7.15 5.48c-3.68-.34-5.87-2.48-6.13-6.14a76.82 76.82 0 0 1-.05-9.95c.23-3.87 2.72-6.27 6.26-6.48a6.62 6.62 0 0 1 7.18 6 34.28 34.28 0 0 1 .05 5.17ZM289.37 76.26a48.44 48.44 0 0 1-.37 5.29 6.11 6.11 0 0 1-5.94 5.45c-3.48.31-6.39-1.27-6.88-4.64a47.89 47.89 0 0 1-.09-13c.47-3.6 3.43-5.24 7.09-4.87 3.49.36 5.5 2.45 5.91 5.92.21 1.85.19 3.72.28 5.85ZM289.38 168c-.1 1.73-.08 3.46-.33 5.16-.52 3.47-2.63 5.48-6.12 5.71-3.68.26-6.46-1.53-6.92-5.13a48.68 48.68 0 0 1 0-12.24c.46-3.6 3.24-5.41 6.91-5.15s5.81 2.43 6.19 6.08a54.44 54.44 0 0 1 0 5.57ZM68.67 232c0 1.73.14 3.47 0 5.18a6.31 6.31 0 0 1-6.29 6.06c-3.38.25-6.31-1.5-6.77-4.92a52.06 52.06 0 0 1-.06-12.66 6.24 6.24 0 0 1 7-5.13c3.51.56 5.81 2.56 6.12 6.29.14 1.72 0 3.45 0 5.18ZM123.75 231.82a49.43 49.43 0 0 1 0 5.58 6.23 6.23 0 0 1-6.07 5.83c-3.37.31-6.39-1.32-6.85-4.75a50.66 50.66 0 0 1-.05-13c.42-3.46 3.39-5.15 6.75-4.9a6.3 6.3 0 0 1 6.26 6.09c.17 1.71 0 3.45 0 5.17ZM68.66 323.57a54.62 54.62 0 0 1 0 5.58 6.55 6.55 0 0 1-6.37 6c-3.42 0-6.26-1.65-6.7-5.07a51 51 0 0 1 0-12.65c.43-3.44 3.32-5 6.71-5.06a6.54 6.54 0 0 1 6.36 6 44.55 44.55 0 0 1 0 5.2ZM82.57 231.65c.12-1.82.1-3.69.38-5.52a6.22 6.22 0 0 1 6.29-5.58c3.18-.18 6.14 1.39 6.54 4.65a54.7 54.7 0 0 1 0 13.41c-.4 3.25-3.36 4.82-6.54 4.64-3.33-.19-5.76-2.05-6.28-5.59-.3-1.96-.27-3.97-.39-6.01ZM82.59 324c.09-1.93.09-3.67.25-5.38.37-3.74 2.69-5.69 6.21-6.19a6.18 6.18 0 0 1 6.95 5.22 54.54 54.54 0 0 1 0 12.25c-.38 3.48-3.14 5.14-6.54 5.26a6.54 6.54 0 0 1-6.5-5.83c-.31-1.83-.28-3.71-.37-5.33ZM123.75 323.66a49.27 49.27 0 0 1 0 5.57 6.54 6.54 0 0 1-6.43 5.93c-3.41-.05-6.23-1.7-6.63-5.15a53 53 0 0 1 .06-12.65c.44-3.46 3.38-5.16 6.73-4.93a6.29 6.29 0 0 1 6.3 6.05c.17 1.71 0 3.45 0 5.18ZM68.67 186.06a42.42 42.42 0 0 1 0 5.17c-.43 3.66-2.6 5.78-6.28 6s-6.4-1.7-6.89-5.24a48.18 48.18 0 0 1-.07-11.88c.4-3.65 3.59-5.78 7.16-5.42s5.74 2.54 6.11 6.19c.17 1.71 0 3.45 0 5.17ZM68.67 278.29a42.14 42.14 0 0 1 0 4.77c-.43 3.66-2.56 5.8-6.25 6s-6.42-1.64-6.92-5.19a48.76 48.76 0 0 1-.12-11.87 6.24 6.24 0 0 1 7.13-5.46c3.67.36 5.77 2.51 6.14 6.16a54.44 54.44 0 0 1 0 5.57ZM123.79 277.82a49.52 49.52 0 0 1 0 5.17c-.38 3.66-2.49 5.83-6.18 6.1s-6.47-1.53-7-5.11a47.47 47.47 0 0 1 0-12.26c.47-3.56 3.24-5.42 6.93-5.16s5.81 2.43 6.21 6.08a49.69 49.69 0 0 1 .04 5.18ZM123.78 186a46.9 46.9 0 0 1 0 5.17c-.42 3.65-2.57 5.79-6.25 6s-6.44-1.64-6.9-5.2a47.46 47.46 0 0 1 .05-12.26c.49-3.58 3.31-5.35 7-5.06a6.11 6.11 0 0 1 6.06 5.76 43.09 43.09 0 0 1 0 5.57ZM82.58 277.6c.11-1.74.07-3.62.36-5.44a6.14 6.14 0 0 1 6.21-5.61c3.49-.19 6.27 1.49 6.72 4.89a49.36 49.36 0 0 1 0 12.62c-.46 3.6-3.33 5.32-7 5-3.49-.28-5.56-2.32-6-5.8-.22-1.81-.19-3.68-.29-5.66ZM96.62 186.58a36.47 36.47 0 0 1-.7 5.85c-.91 3.37-3.36 5-6.85 4.81S83.28 195 83 191.56a68.62 68.62 0 0 1-.08-10.73c.23-3.66 2.44-5.79 6.12-6.14s6.37 1.76 7.12 5.5a52.72 52.72 0 0 1 .46 6.39ZM252.53 309.73v61a30.32 30.32 0 0 1-.25 4.77 6.1 6.1 0 0 1-5.94 5.44c-3.29.31-5.75-1.12-6.86-4.23a15.47 15.47 0 0 1-.69-5.09q-.06-61.59 0-123.2a17.37 17.37 0 0 1 .54-4.72 6.18 6.18 0 0 1 6.92-4.76 6.25 6.25 0 0 1 6.09 5.8 40 40 0 0 1 .2 4.78q0 30.12-.01 60.21ZM197.4 309.73v61a27.92 27.92 0 0 1-.23 4.76 6.12 6.12 0 0 1-5.94 5.45c-3.3.31-5.76-1.12-6.87-4.23a15.44 15.44 0 0 1-.68-5.08q-.06-61.61 0-123.21a17.29 17.29 0 0 1 .53-4.71 6.67 6.67 0 0 1 13 1 37.9 37.9 0 0 1 .19 4.77q.01 30.14 0 60.25ZM211.32 309.87v-60.61a40 40 0 0 1 .15-4.38 6.69 6.69 0 0 1 13-1.3 14.17 14.17 0 0 1 .55 4.31v124a14.07 14.07 0 0 1-.76 5.06c-1.22 3.07-3.75 4.38-7 4a6.12 6.12 0 0 1-5.73-5.67 30.25 30.25 0 0 1-.18-4.37q-.03-30.54-.03-61.04ZM153.82 101h25.94c3.07 0 5.84.59 7.51 3.52a6.63 6.63 0 0 1-3.39 9.56 12.72 12.72 0 0 1-4.29.68h-51.48c-3.74 0-7-1-8.27-4.86-1.58-4.65 1.72-8.78 7.24-8.88 8.91-.16 17.83 0 26.74 0Z"/>
</svg>