<svg xmlns="http://www.w3.org/2000/svg" viewBox="0 0 384 254.75" id="bungalow_category">
    <path stroke-width="10" stroke="#89725b" d="M384 220.39c-3.32 7.76-10.1 7.82-17.54 7.13v14.21c0 9.23-3.75 12.94-13 13-4.88 0-9.75.09-14.62 0-7.56-.16-11.47-4.12-11.6-11.72-.08-4.62 0-9.25-.07-13.87A7.53 7.53 0 0 0 327 228H211.45v14.55c-.05 8-4 12-11.95 12.1-5.24.07-10.5.1-15.74 0-7.43-.15-11.31-4.08-11.4-11.43-.06-5 0-10 0-15.33-1.73-.08-3.17-.2-4.61-.2H95.01a17.82 17.82 0 0 1-4.45-.37 5.07 5.07 0 0 1-4.07-5.55 5.15 5.15 0 0 1 4.93-5.21 41.94 41.94 0 0 1 4.49-.1h276.54v-13.3H11.53v13.3h55.89c3.91.17 6.15 2.21 6.14 5.58s-2.29 5.49-6.16 5.63c-3.49.11-7 0-11.06 0v14.32c0 9-3.74 12.65-12.81 12.68-4.75 0-9.5.05-14.25 0-8-.1-12-4.06-12-12v-15c-7.11.37-14 .54-17.25-7.28v-21.75C1.58 196.77 3.3 195 4.69 193a6.73 6.73 0 0 0 1.13-3.62q.12-17.82 0-35.63c0-2.87.73-5.18 3.59-6.34 3.61-1.47 7.29 1 7.63 5.2.21 2.59 0 5.21 0 8.07h18V87.45H9.9c-3.53 0-6.41-1.06-7.84-4.57s0-6 2.37-8.39C28.22 50.73 51.94 26.9 75.84 3.25a11.1 11.1 0 0 1 6.86-3c11.49-.31 23-.2 34.49-.12 4.94 0 7.75 3.26 6.55 7.29-.94 3.15-3.42 4-6.43 4H95c1.28 1.43 2 2.32 2.78 3.12q29 29 58 58.11a8 8 0 0 0 6.25 2.51q67.3-.11 134.61 0a20.1 20.1 0 0 1 4.47.27 5.11 5.11 0 0 1 4.32 5.71 5.05 5.05 0 0 1-4.92 5.17 37.67 37.67 0 0 1-4.12.09H175.8v74.41h18.12v-5.94c0-5.08 1.94-7.75 5.53-7.81s5.74 2.73 5.75 8v36.44h36.52c.07-1.31.22-2.62.22-3.93v-32.62c0-1.37-.32-3.2.41-4 1.46-1.6 3.43-3.45 5.39-3.71 2.86-.39 4.95 1.76 5.25 4.74.28 2.82.06 5.7.06 8.79h85.63V86.32h-12c-5.79 0-8.37-1.78-8.28-5.7.08-3.72 2.75-5.54 8.17-5.54h37.73c-1.16-1.34-1.81-2.18-2.56-2.93q-29-29-58-58.11a8.41 8.41 0 0 0-6.56-2.7q-75.37.11-150.75.05h-3.75c-3.6-.23-5.82-2.37-5.83-5.53s2.26-5.4 5.8-5.74c1.12-.1 2.25 0 3.37 0Q222.9.07 299.76 0A13.22 13.22 0 0 1 310 4.28c22.7 22.9 45.56 45.65 68.35 68.46 1.93 1.93 3.78 3.93 5.66 5.9v3.75c-1.55 3-4 4.2-7.37 4-2.74-.18-5.5 0-8.25 0h-18v74.41h17.83c.11-1.13.25-2.09.28-3 .05-1.5-.05-3 0-4.5.23-3.79 2.48-6.21 5.67-6.2s5.51 2.44 5.54 6.24c.09 10.5.25 21 0 31.5-.15 5.27.39 10 4.29 13.92ZM164.12 86.32a37.1 37.1 0 0 0-4.39 0c-4.37.58-7.66-1-10.51-4.34a74.29 74.29 0 0 0-8.76-8.71 10.11 10.11 0 0 0-5.81-2.39c-19.74-.17-39.53.6-59.23-.37C64.2 70 55.5 72.56 49.13 81.8a11.36 11.36 0 0 0-2.33 5.84c-.16 23-.11 46-.09 69 0 1.33.11 2.65.17 4h117.24ZM19.92 76.2c5 0 10.25.22 15.41-.11a9.78 9.78 0 0 0 5.78-2.4C57 58 72.79 42.15 88.58 26.34c.78-.77 1.5-1.61 1.89-2l-9-9.63Zm52.36-17h52.66l-26.1-26.59Zm39.08 113.29v19.17c6.49 0 12.71.07 18.92-.08.74 0 2.07-1.14 2.08-1.79.17-5.7.1-11.41.1-17.3Zm-32.48 0v18.94h20.74v-18.98Zm174.58 18.9h20.81v-18.93h-20.81Zm53.42-18.78h-20.83v18.79h20.83Zm-239.77 0H47v18.83h20.11Zm76.89 18.8h20v-18.95h-20Zm194.78-18.91H318.4c0 5.84-.06 11.45.07 17 0 .7 1 2 1.55 2 6.21.15 12.42.09 18.76.09Zm-163.14 18.87h18v-18.81h-18Zm-140.47.1v-19H17.46v19Zm333.12-18.95h-17.85v18.89h17.85Zm-13.46 70.86v-15.44h-16.29c0 4.68-.1 9.13.11 13.57 0 .66 1.57 1.75 2.44 1.79 4.34.18 8.7.08 13.74.08ZM45 228H28.75v15.1H45Zm139-.09V243h16v-15.11Z"/><path d="M296.4 147.72c-7 0-14 .06-21 0-6.27-.07-10.21-3.65-10.34-9.88q-.3-15.35 0-30.7c.14-6.2 4.14-9.73 10.44-9.76q20.79-.06 41.57 0c6.24 0 10.2 3.63 10.34 9.88q.32 15.15 0 30.32c-.11 6.47-4 10.06-10.48 10.13-6.8.07-13.67.02-20.53.01Zm19.68-38.84H276.6v27.28h39.48ZM193.94 128.61c.66-17.65 13.76-30.12 30.68-29.74 15.92.35 28.62 13.76 28.63 30.18 0 2.8-.53 5.61-3.44 6.41-1.77.48-4.48.18-5.76-.93s-1.88-3.66-2-5.64c-.69-9.45-5.58-16-14-18.2a18.22 18.22 0 0 0-22.69 15.84c-.12 1.25-.08 2.5-.2 3.75-.33 3.54-2.57 5.85-5.62 5.86s-5.42-2.46-5.6-6.22c-.03-.62 0-1.25 0-1.31ZM67.33 135v-29.95c0-7.53 3-10.52 10.38-10.53h53.24c7.27 0 10.31 3 10.35 10.21v30.59c2.12 0 3.94-.09 5.75 0 3.49.21 5.85 2.53 5.82 5.59s-2.24 5.19-5.51 5.54a31.6 31.6 0 0 1-3.37.08H64.88c-4.44-.11-7-2.11-7.07-5.53s2.36-5.43 6.85-5.72c.73-.03 1.46-.13 2.67-.28Zm11.52-29v29h50.83v-29Z"/>
</svg>