<svg xmlns="http://www.w3.org/2000/svg" viewBox="0 0 384 384" id="condominium_category">
    <path stroke-width="10" stroke="#5d5d5d" d="M245.22 0H384v384H0V0h138.68v37.37h106.54Zm-234 11.26v361.41h116.39V11.26Zm361.4 361.55V11.4H256.29v361.41ZM139 48.81v324h11.62v-59.6h82.93v59.43h11.4V48.81Zm83.46 324v-48.68h-24.89v48.65ZM161.51 324v48.75h24.79V324Z"/><path d="M63.31 71H22.87V30.46h40.44ZM52.42 41.41H33.73V60h18.69ZM115.76 71H75.42V30.51h40.34ZM86.33 41.34V60H105V41.34ZM63.43 271.16v40.32H22.82v-40.32Zm-29.68 29.51h18.61v-18.74H33.75ZM75.77 271h40v40.79H78.42c-1.69 0-3.27.11-3.25-2.39.09-12.47.1-24.94.15-37.42 0-.22.19-.44.45-.98ZM105 282H86.09c0 5.76-.06 11.21.06 16.65 0 .73.91 2.05 1.43 2.07 5.79.14 11.59.09 17.44.09ZM22.77 131V90.59h40.57V131Zm11-10.78h18.57v-18.77H33.73ZM116 90.81V131H75.54a21.93 21.93 0 0 1-.33-2.76v-34.5c0-1.91 0-3.41 2.67-3.39 12.25.09 24.5.06 36.75.09a6 6 0 0 1 1.37.37Zm-11 29.38v-19c-5.8 0-11.26-.07-16.71.09a2.83 2.83 0 0 0-2 1.87c-.16 5.58-.09 11.17-.09 17ZM75.2 210.93h40.57v40.18a20.37 20.37 0 0 1-2.76.41h-34.5c-1.63 0-3.33.17-3.33-2.35.04-12.58.02-25.17.02-38.24Zm30.06 20.21c0-2.24-.11-4.49 0-6.73s-.91-3-3.09-3c-4.36.09-8.72.12-13.08 0-2.56-.08-3.24 1.06-3.09 3.38s0 4.48 0 6.73c0 9.3 0 9.3 9.41 9.3 9.86-.01 9.86-.01 9.85-9.68ZM63.25 251.27H22.8v-40.16h40.45Zm-29.56-10.74h18.63v-18.8H33.69ZM63.26 191.11H22.79V151h40.47Zm-29.52-10.47c5.8 0 11.38.06 16.95-.08a2.55 2.55 0 0 0 1.83-1.68c.14-5.7.08-11.4.08-17.24H33.74ZM75.42 150.87h40.47V191H75.42ZM105.26 171c0-2.25-.1-4.5 0-6.73s-.84-3.07-3.06-3c-4.36.11-8.73.14-13.09 0-2.57-.09-3.24 1-3.1 3.36s0 4.48 0 6.73c0 9.35 0 9.35 9.39 9.35 9.87-.02 9.87-.02 9.86-9.71ZM308.41 71h-40.33V30.44h40.33Zm-10.85-11V41.44h-18.67v18.62ZM320.57 30.38h40.48v40.54h-40.48Zm29.56 29.69V41.45h-18.61v18.62ZM320.64 271.07h40.41v40.36h-40.41Zm10.87 29.5h18.64V282h-18.64ZM267.91 311.35V271.2h40.8v37.25c0 1.92 0 3.39-2.68 3.37-12.23-.1-24.46-.06-36.69-.09a7 7 0 0 1-1.43-.38Zm11-10.5c5.92 0 11.6 0 17.29-.07a2.24 2.24 0 0 0 1.54-1.57c.12-5.68.07-11.36.07-17.19h-18.9ZM320.56 131V90.59h40.57V131Zm29.51-10.68v-18.85h-18.49v18.83ZM268 90.33h37.15c1.51 0 3.54-.57 3.54 2.05v38.52H268Zm29.81 29.91c0-6 .09-11.43-.1-16.89a3.1 3.1 0 0 0-2.21-2c-4.85-.19-9.71-.17-14.57 0-.77 0-2.14 1.09-2.16 1.71-.17 5.68-.1 11.37-.1 17.24ZM320.63 211h40.48v40.16h-40.48Zm29.54 10.49c-5.78 0-11.35-.06-16.93.08a2.56 2.56 0 0 0-1.86 1.65c-.14 5.69-.08 11.39-.08 17.27h18.87ZM268.12 210.93h40.39c.07 1.35.19 2.56.19 3.76v33.37c0 1.85.08 3.51-2.58 3.49-12.25-.08-24.49-.07-36.74-.11a6 6 0 0 1-1.28-.35Zm10.56 10.77c0 6-.07 11.65.1 17.35 0 .6 1.43 1.65 2.23 1.67 4.85.16 9.72.16 14.57 0 .76 0 2.1-1.15 2.12-1.79.16-5.67.09-11.35.09-17.22ZM320.58 150.83H361v40.24h-40.42Zm29.52 29.79v-19.06h-18.8c0 6 0 11.67.07 17.37a2.28 2.28 0 0 0 1.52 1.62c5.69.12 11.39.07 17.21.07ZM268 150.6h20.51c5.75 0 11.5-.11 17.24.11 1 0 2.81 1.43 2.83 2.21.17 12.59.12 25.19.12 38.1H268Zm29.83 20.6c0-9.91 0-9.91-9.56-9.91s-9.64 0-9.64 9.84c0 9.56 0 9.56 9.56 9.56s9.64 0 9.64-9.49ZM233.05 108.47H150.5v-6.81c0-10.11.05-20.23 0-30.34 0-2.37.41-3.61 3.25-3.6 25.73.1 51.45.06 77.18.07.6 0 1.21.11 2.15.2Zm-23-29.8c-3.37 0-6.74.07-10.11 0-1.94-.05-2.69.74-2.66 2.64q.08 6.92 0 13.84c0 1.82.56 2.75 2.57 2.73q10.1-.09 20.21 0c1.91 0 2.68-.71 2.65-2.63a426.3 426.3 0 0 1 0-13.85c.05-2.18-.93-2.8-2.94-2.74-3.23.09-6.48.01-9.72.01Zm-36.48 19.17c3.37 0 6.74-.07 10.1 0 2 .06 3-.55 3-2.73-.09-4.62-.06-9.23 0-13.85 0-1.89-.72-2.66-2.66-2.64q-10.1.1-20.21 0c-2 0-2.58.9-2.56 2.73.05 4.61.06 9.23 0 13.84 0 1.92.73 2.69 2.65 2.64 3.19-.05 6.43.01 9.68.01ZM150.54 248.51H233a23.56 23.56 0 0 1 .39 3c0 11.37-.05 22.74.08 34.11 0 2.76-.81 3.67-3.63 3.66-25.25-.09-50.5 0-75.75-.07-1.53 0-3.52.5-3.52-2.09-.04-12.73-.03-25.46-.03-38.61Zm10.7 10.64c0 6.08-.09 11.67.11 17.25 0 .68 1.56 1.85 2.42 1.87 6.75.16 13.5.17 20.24 0a3.43 3.43 0 0 0 2.47-2.22c.23-4.86.2-9.74 0-14.61 0-.78-1.12-2.17-1.74-2.18-7.67-.16-15.38-.11-23.5-.11Zm61.44 0c-8.22 0-15.82-.06-23.41.09-.67 0-1.85 1.32-1.88 2.06-.17 4.86-.2 9.74 0 14.61a3.42 3.42 0 0 0 2.33 2.35c6.87.19 13.75.17 20.62 0a3.14 3.14 0 0 0 2.22-2.09c.21-5.48.12-10.96.12-17.03ZM191.56 229c-12.37 0-24.74-.09-37.11.06-3.15 0-4-1-4-4.07q.23-16.48 0-33c0-2.94.88-3.83 3.84-3.82q37.67.15 75.35 0c3 0 3.84.94 3.81 3.84q-.21 16.68 0 33.36c0 2.77-.85 3.68-3.64 3.66-12.76-.14-25.5-.03-38.25-.03Zm-17.63-10.69c3.25 0 6.51-.07 9.76 0 2 .06 3-.69 2.94-2.81-.07-4.62-.08-9.25 0-13.88 0-2.19-1-2.76-3-2.75-6.5.06-13 .08-19.5 0-2.37 0-3 1.06-2.94 3.2.1 4.25.14 8.51 0 12.75-.09 2.55.71 3.67 3.4 3.51 3.08-.2 6.22-.06 9.34-.06Zm36 0c3.38 0 6.77.2 10.12-.12a3.71 3.71 0 0 0 2.56-2.52c.27-4.61.06-9.24.15-13.86 0-2.09-.77-2.92-2.85-2.9-6.63.06-13.26-.08-19.88.14a3.68 3.68 0 0 0-2.57 2.54c-.27 4.6-.08 9.24-.15 13.86 0 2.06.76 2.95 2.87 2.89 3.21-.14 6.46-.07 9.71-.08ZM191.71 168.8c-12.37 0-24.75-.08-37.12.06-3 0-4.21-.59-4.15-3.87.18-11.12.14-22.25 0-33.37 0-2.79.92-3.66 3.67-3.65q37.88.12 75.74 0c2.49 0 3.59.67 3.57 3.38q-.16 17.05 0 34.11c0 2.66-.92 3.4-3.49 3.38-12.72-.1-25.47-.04-38.22-.04Zm18.46-30.05c-3.25 0-6.5.09-9.75 0-2.19-.08-3.22.63-3.16 3 .1 4.49.08 9 0 13.49 0 2 .69 3 2.82 2.95q9.93-.09 19.87 0c2.16 0 2.81-1 2.77-3-.08-4.5-.11-9 0-13.5.06-2.39-1-3-3.19-2.93-3.11.07-6.24-.01-9.36-.01Zm-36.5 19.36c3.37 0 6.75-.06 10.12 0 2.1.05 2.88-.86 2.85-2.92-.09-4.5-.07-9 0-13.5 0-2-.53-3-2.75-3q-9.93.14-19.87 0c-2.13 0-2.87.86-2.83 2.91.08 4.49.11 9 0 13.49-.07 2.35 1 3.08 3.12 3 3.11-.09 6.23.02 9.36.02Z"/>
</svg>