<svg xmlns="http://www.w3.org/2000/svg" viewBox="0 0 266.71 383.25" id="fridge">
    <path d="M35.2 383.25c-11.39-4-10.82-13.51-10.21-23-2.87-.31-5.33-.42-7.75-.84A20.82 20.82 0 0 1 0 339.6V22.26C0 10.76 6.75 2.3 17.45.33A28.39 28.39 0 0 1 22.67 0h221.17c13.93 0 22.63 8.7 22.66 22.62v32.94c0 4.38-2.11 6.92-5.58 6.93s-5.62-2.55-5.63-6.91V22.65c0-7.7-3.75-11.42-11.5-11.42H22.62c-7.28 0-11.34 3.65-11.35 10.43q-.06 52.58 0 105.15c0 .49.08 1 .17 2h55.19a16.44 16.44 0 0 1 3.72.23c2.89.71 4.59 2.66 4.42 5.66s-2 5-5.24 5.28c-1.36.12-2.74 0-4.11 0H11.23v196.45c0 8.69 3.55 12.25 12.27 12.25h219.67c8.47 0 12.1-3.63 12.11-12V140.07H99.52c-6.87 0-9.59-1.55-9.63-5.5s2.79-5.73 9.5-5.73h155.89V84.36c0-2.89.86-5.21 3.64-6.35a5.51 5.51 0 0 1 7.52 4.5 29.62 29.62 0 0 1 .09 4.11c0 82.33-.25 164.66.2 247 .1 16.85-8.91 26.86-25 26.48.14 9.27 1.24 19.22-10.4 23.16H209.6c-11.63-3.92-10.54-13.86-10.39-23.09h-132c.46 9.57 1.13 19.15-10.29 23.09Zm.89-23.1a66 66 0 0 0 .14 9.05 4.18 4.18 0 0 0 3 2.69 113 113 0 0 0 13.77 0c1.05-.06 2.78-1.46 2.89-2.4a78.3 78.3 0 0 0 .14-9.36Zm193.84 0h-19.45c0 2.9.09 5.6 0 8.3s1.18 3.78 3.85 3.61c2-.13 4 0 6 0 11.05 0 11.05 0 10.08-11a3.43 3.43 0 0 0-.48-.92Z"/><path d="M25.47 195.23v-25.06c0-9.55 6.54-16.59 15.4-16.78 9.25-.19 16.22 6.45 16.32 16.19q.28 25.8 0 51.6c-.11 9.77-7 16.4-16.29 16.22-8.89-.18-15.39-7.2-15.44-16.74-.03-8.48.01-16.95.01-25.43Zm20.57.5v-25.39c0-3.07-1-5.46-4.53-5.69-3-.18-4.76 1.94-4.79 5.76-.05 5.85 0 11.7 0 17.55v32.5c0 4.44 3.51 7.29 6.57 5.14 1.49-1 2.57-3.65 2.64-5.59.28-8.08.07-16.18.07-24.28ZM57.15 69.92c0 9.23.24 18.46-.09 27.67-.24 6.43-3.92 10.92-9.84 13.36s-11.29 1.32-16.1-2.62a14.81 14.81 0 0 1-5.62-11.76c-.06-17.7-.13-35.41 0-53.11A15.76 15.76 0 0 1 41.13 28a15.51 15.51 0 0 1 15.93 14.63c.4 9.08.09 18.2.09 27.29Zm-20.46.16v24.66c0 3.84 1.66 6.05 4.49 6.17S46 98.79 46 94.72q.06-24.66 0-49.33c0-4.12-1.81-6.28-4.85-6.14-2.85.14-4.46 2.31-4.47 6.17q-.01 12.33.01 24.66Z"/>
</svg>