<svg xmlns="http://www.w3.org/2000/svg" viewBox="0 0 383.41 382.92" id="garage">
    <path d="M40.43 382.92H0V67.77C2.27 66.2 4.33 64 6.85 63.14Q97 31.87 187.23.78a13 13 0 0 1 9 .06Q286.46 32 376.69 63.11c5.67 2 6.66 3.33 6.66 9.21q0 150.78.06 301.55c0 4-1 7.05-4.55 9.05h-35.94c-3.58-2.22-4.4-5.55-4.4-9.56q.11-94.87.05-189.75v-4.77H44.78v194.53c.05 4-.78 7.33-4.35 9.55ZM370.6 114.47c0-13 .07-25.42-.13-37.88 0-1-1.61-2.61-2.79-3Q281 43.57 194.27 13.8a8.22 8.22 0 0 0-5-.08q-86.9 29.84-173.78 59.77c-2.19.75-2.81 1.79-2.78 4 .1 10.1 0 20.21 0 30.31v6.68ZM13 127.65v242.2h18.68v-242.2Zm338.62 0v242.22h18.68V127.65ZM45 140h293.3v-12.3H45Zm0 25.56h293.28v-12.3H45Z"/><path d="M73.38 382.92c-7.55-3.27-9.71-9.24-9.64-17.11.25-27.31.18-54.63 0-81.95 0-5 1.59-8.21 6.28-10.24 5.47-2.39 10.65-5.44 16.09-7.91a14.18 14.18 0 0 0 7.43-7.27c5.74-12 11.9-23.85 17.78-35.81 4-8.24 10.52-12.18 19.71-12.16q60.63.09 121.27 0c9.37 0 15.81 4.1 19.9 12.48q9.09 18.65 18.59 37.08a11.58 11.58 0 0 0 4.51 4.54c6.23 3.39 12.6 6.55 19 9.58a8.2 8.2 0 0 1 5.2 8.22q-.07 43.23 0 86.45c0 7-3.6 11.28-9.56 14.11h-31.41c-6.8-2.36-10.34-7-10.23-14.34v-17.4H115.05c0 5.34-.2 10.44 0 15.52.38 7.92-2.53 13.55-10.28 16.22Zm233-45a9.63 9.63 0 0 0 .3-1.62c0-16.47.07-32.93-.07-49.4a4.69 4.69 0 0 0-2.22-3.28 149.32 149.32 0 0 0-14-7 24.76 24.76 0 0 0-9.2-2.17c-54.91-.13-109.82.23-164.72-.33-13.42-.14-25.56 1.84-36.89 9-2.07 1.31-3 2.4-3 4.87.11 15.47.05 30.94.07 46.41 0 1.1.12 2.19.2 3.49Zm-29.25-76.39c-5.67-11.33-11.16-22.06-16.4-32.92-1.88-3.89-4.55-5.39-8.83-5.37q-60.25.14-120.5 0c-4.29 0-7 1.52-8.81 5.41-4.8 10-9.87 19.85-14.82 29.77-.47.94-.8 1.94-1.29 3.12ZM102 351.17H76.88v18.73H102Zm179.31 18.75h25.06v-18.77h-25.02Z"/><path d="M191.3 325.37H161c-8.87 0-13.9-5-14.09-13.86-.07-3.61-.1-7.23 0-10.84.26-8.38 5.4-13.5 13.72-13.53q31-.08 62.08 0c8.17 0 13.36 5 13.69 13.16.16 4 .17 8 0 12-.34 8.15-5.46 13-13.69 13.1-10.47.02-20.94-.04-31.41-.03Zm32-13v-12.26h-63.43v12.27ZM111.65 325.32c-3.36 0-6.73.12-10.09 0-6.22-.28-11.29-4.72-11.78-10.9a102.12 102.12 0 0 1 0-16 12 12 0 0 1 12-11.18c6.72-.21 13.46-.21 20.18 0A12.39 12.39 0 0 1 134 299.42c.16 4.48.15 9 0 13.45a12.41 12.41 0 0 1-12.32 12.44c-3.36.13-6.73 0-10.09 0Zm-9.19-25.27v12.29h18.7v-12.29ZM271.59 325.31c-3.49 0-7 .14-10.46 0a12.29 12.29 0 0 1-11.79-11.77c-.21-4.73-.19-9.47 0-14.2a12.32 12.32 0 0 1 11.89-12.1c6.84-.26 13.71-.24 20.55 0a12 12 0 0 1 11.86 11.27 103.62 103.62 0 0 1 0 15.66c-.49 6.41-5.53 10.9-11.93 11.17-3.35.14-6.72 0-10.09 0Zm9.34-25.22h-18.64v12.29h18.64Z"/>
</svg>