<svg xmlns="http://www.w3.org/2000/svg" viewBox="0 0 512 320.23" id="gym">
    <path stroke-width="10" stroke="#89725b" d="M512 185.12c-3.36 10.81-9 19.91-20.54 23.1-6 1.65-12.41 1.8-19.46 2.73v4.64c-.14 14.65.85 29.42-.66 43.94-2.95 28.36-32.25 43.64-57.75 31-.71-.35-1.45-.65-1.42-.63-3.87 6.11-6.83 12.61-11.41 17.64a38.25 38.25 0 0 1-43.95 9.46c-16.23-7.08-24.51-20.06-24.74-37.72-.28-21-.07-42-.07-63v-5.79H180v5.29c0 21.17.21 42.33-.06 63.49-.35 28.19-25.58 47-52.08 38.82-12.17-3.76-20.51-12-25.16-23.89-.59-1.52-1.18-3-1.88-4.86-9.94 5.58-20.21 7.35-31 4.31-18.31-5.17-29.56-20.1-29.82-39.58-.15-12.82 0-25.66 0-38.48v-5.47h-7.72C16 210 5.71 202.42.88 186.86a11.37 11.37 0 0 0-.88-1.74v-50c3.36-10.8 9-19.91 20.54-23.1 6-1.65 12.41-1.79 19.46-2.73v-4.63c.14-14.66-.85-29.43.66-43.94 3-28.37 32.25-43.64 57.75-31 .71.35 1.45.65 1.42.64 3.87-6.12 6.83-12.61 11.41-17.64a38.21 38.21 0 0 1 43.94-9.45c16.24 7.08 24.52 20.05 24.75 37.73.28 21 .07 42 .07 63v5.8h152v-5.3c0-21.16-.21-42.32.06-63.48.35-28.2 25.58-47 52.08-38.82 12.17 3.75 20.51 12 25.16 23.88.48 1.24.89 2.5 1.38 3.73.11.29.42.5.84.95 9.6-5.4 19.87-7.16 30.63-4.13 18.36 5.18 29.59 20.09 29.82 39.57.15 12.83 0 25.66 0 38.49v5.46h7.71c16.32.1 26.58 7.71 31.41 23.27a10.83 10.83 0 0 0 .88 1.73Zm-392-25v102c0 6.33-.23 12.68.12 19a19.91 19.91 0 0 0 27.33 17.53c8.16-3.29 12.54-10.46 12.54-20.8V42.38c0-1.34 0-2.68-.12-4a20 20 0 0 0-27.08-16.88C124.66 24.63 120 32 120 42.14v117.99Zm272 0V60.64c0-7 .19-14-.08-21A20 20 0 0 0 365 21.38c-8.47 3.13-13 10.58-13 21.49v234.47a45 45 0 0 0 .13 4.5 20 20 0 0 0 26.59 17.09C387.07 296 392 288.39 392 278.12V160.13Zm-292 .29v-29c0-21.83.11-43.66 0-65.49-.11-14.69-13.34-24.3-26.65-19.63C64.78 49.29 60 56.85 60 67.58v185a44.8 44.8 0 0 0 .13 4.49 20 20 0 0 0 27.25 16.61c8-3.19 12.58-10.41 12.6-20.26q.02-46.5.02-93Zm352-.28v-48.48c0-15.5.19-31-.08-46.49-.25-14.24-13.85-23.57-26.87-18.78-8.33 3.06-13 10.54-13 21v168.48c0 6.5-.12 13 .06 19.5A19.89 19.89 0 0 0 426 274.11c13.3 4.17 25.94-5.4 26-20 .08-31.31 0-62.64 0-93.97Zm-120.16 10h-65.73a44.73 44.73 0 0 1-4.49-.1c-5.54-.62-9.47-4.69-9.54-9.79s3.83-9.3 9.32-10a35.34 35.34 0 0 1 4.49-.12h65.67v-19.74H180.31v59.37h151.53Zm-292-40c-3.6 0-6.75-.19-9.87 0-5.81.44-9.74 4.11-9.84 9.93q-.37 20 0 39.9c.1 5.84 4 9.55 9.79 10 3.24.25 6.52 0 9.93 0Zm432.34 59.92c3.6 0 6.75.19 9.87-.05 5.81-.43 9.74-4.1 9.84-9.93q.38-19.93 0-39.9c-.1-5.84-4-9.54-9.79-10-3.24-.25-6.52 0-9.93 0Z"/><path d="M231.93 160.23a9.93 9.93 0 1 1-9.8-10 10.25 10.25 0 0 1 9.8 10Z"/>
</svg>