<svg xmlns="http://www.w3.org/2000/svg" viewBox="0 0 509.42 509.42" id="home">
    <path d="M455.47 300.58v150.28c0 34.42-23.42 57.84-57.77 57.87H322c-12.19 0-17.84-5.72-17.85-18.07v-114c0-18-10.05-28-28.07-28-14.28 0-28.56-.05-42.83 0-16.75.08-27 10.32-27.07 27q-.06 57.27 0 114.54c0 13-5.48 18.57-18.35 18.57h-75.7c-33.7-.05-57.21-23.59-57.25-57.38q-.06-72 0-143.92v-6.82H48.4c-20.47-.09-37.57-10.9-44.63-29.09-7.54-19.41-3.71-37 10.91-51.71 31.31-31.6 62.87-63 94.33-94.42 36.86-36.86 74.29-73.17 110.34-110.8 18.65-19.49 52.52-19.46 71.49-.16q101.42 103.17 204.49 204.69c21.25 21 18.43 60.06-8.25 75a47.43 47.43 0 0 1-22.72 6.43c-2.78.02-5.56-.01-8.89-.01ZM334 478.85h63.07c18.72 0 28.49-9.8 28.49-28.56V287.93c0-11.23 6-17.15 17.24-17.2 7 0 13.95.1 20.92-.06a16.55 16.55 0 0 0 15.76-12.22c2.47-8.35-1.54-14.23-7.14-19.82Q371 137.46 269.85 36.17c-10.35-10.34-19.06-10.29-29.5.14Q150.2 126.46 60 216.62c-8.18 8.21-16.44 16.38-24.6 24.66-5.43 5.5-7 12.06-3.91 19.19 3 6.88 8.63 10.26 16.2 10.25h16.93c15.08 0 20.1 4.95 20.1 19.85 0 53.29.35 106.59-.2 159.87-.19 18.15 12.94 29.1 28.34 28.56 19.23-.67 38.51-.16 57.77-.16h5.63v-6.6c0-33.7-.28-67.4.22-101.1.4-26.52 21.69-49.81 48.17-51.59 20.3-1.36 40.78-.27 61.18-.21a22.81 22.81 0 0 1 4.9.76c25.9 5.92 43.08 27.21 43.24 54.2.2 32.7 0 65.41 0 98.11Z" data-name="Capa 1"/>
</svg>