<svg xmlns="http://www.w3.org/2000/svg" viewBox="0 0 360.14 348.14" id="home_category">
    <path d="M42.05 275.8v-3.6q0-51.76.06-103.53a6.35 6.35 0 0 0-3-5.87c-5.9-4.21-11.66-8.63-17.44-13-5-3.76-5-7.8 0-11.47q76.95-56.2 153.82-112.42c3.2-2.34 6-2.34 9.19 0 12.87 9.5 25.81 18.9 38.73 28.34 1.3 1 2.61 1.87 4.35 3.12V36.21c-5-.86-5.91-4.63-5.74-9.36.24-6.49 0-13 .07-19.5 0-5.17 2.14-7.32 7.28-7.33h57.38c5.17 0 7.3 2.14 7.33 7.28.05 6.88 0 13.76 0 20.63 0 5.31-.8 6.44-6 8.43V46.7c0 17.14.06 34.27-.06 51.4a6 6 0 0 0 2.82 5.51q23.53 17 46.94 34.26c5.83 4.27 5.83 8 0 12.39S326 159 320.2 163.61a5.77 5.77 0 0 0-2 3.94q-.17 53.07-.08 106.16c0 .73.13 1.45.19 2.14 14.87 2.26 21.63 8.93 23.85 23.23a4 4 0 0 0 2.12 2.44c11.5 5 17.68 15.68 15.4 26.92-2.45 12.1-11.9 19.69-24.7 19.69H25.18c-12.79 0-22.28-7.62-24.71-19.69-2.27-11.26 3.87-21.9 15.41-26.93a3.91 3.91 0 0 0 2.12-2.44c2.17-14.24 8.89-20.88 24.05-23.27ZM306.1 336v-2.87q0-82.51.07-165c0-2.55-1.13-3.79-2.93-5.09q-47.62-34.58-95.19-69.22l-27.9-20.25c-.79.54-1.41.94-2 1.37q-60.93 44.26-121.89 88.52c-1.94 1.41-2.24 2.95-2.24 5.06q.06 81.95 0 163.88v3.6h132V200.54c0-6.63 1.79-8.41 8.46-8.41h78.74c7.14 0 8.81 1.67 8.81 8.82V336Zm-36.27 0V204.38h-71.56V336ZM180.09 37.45 34.14 144.14l14 10.43c1.61-1.15 2.93-2.08 4.25-3L173 63.76c6.93-5 7.24-5 14-.12q61.39 44.65 122.78 89.29c.78.57 1.63 1 2.46 1.54L326 144.11Zm95.73 55.07V36.21h-35.73v29a3.08 3.08 0 0 0 1.14 2.11c11.4 8.31 22.77 16.6 34.59 25.2ZM41.91 288.41c-7.94 0-13.16 6.82-11.34 14.75 1.38 6.06-.62 8.7-6.81 9a12.15 12.15 0 0 0-11.65 10.67c-.65 5.9 3.11 12.07 9.08 12.76 6.82.79 13.81.18 20.72.18Zm276.32 47.72h3.26c5.25 0 10.51.2 15.74-.1a11.81 11.81 0 0 0 10.91-12.13 12 12 0 0 0-11-11.74c-7.56-.64-8.9-2.39-7.36-9.69a11.59 11.59 0 0 0-11.58-14.05ZM281.92 12.27h-47.54v11.56h47.54Z"/><path d="M162.07 240.47v39.76c0 5.88-2 7.88-7.89 7.88H85.93c-5.88 0-7.87-2-7.87-7.89v-80.27c0-5.89 2-7.86 7.88-7.87h68.25c5.88 0 7.87 2 7.88 7.88q.02 20.25 0 40.51Zm-48.21-6.54v-29.61H90.32v29.61Zm36.07-29.56h-23.68v29.5h23.68Zm-36.13 71.57V246.4H90.26v29.54Zm12.53-29.67v29.54h23.54v-29.54ZM222.05 264a6 6 0 1 1-6-5.91 6.05 6.05 0 0 1 6 5.91Z"/>
</svg>