<svg xmlns="http://www.w3.org/2000/svg" viewBox="0 0 372.19 371.91" id="residential_category">
    <path stroke-width="10" stroke="#89725b" d="M252.26 126.38v17.68h3.92c24.38 0 48.76.05 73.13-.06a7 7 0 0 1 6 2.8c10.08 11.95 20.2 23.86 30.5 35.61 5.88 6.7 8.37 14 4.54 22.39s-10.83 11.7-19.81 11.31c-.62 0-1.24.06-2.14.1v95.87h23.52v59.83H.27v-59.59H23.7v-186a9.24 9.24 0 0 0-1.12-.29c-11.19-1.34-19.4-8.16-21.83-18.15C-1.76 97.56 2.09 88 11.44 81.58q40.5-27.75 81-55.46l30.62-21c10-6.87 19.86-6.9 30 0q55.55 38 111.05 76c9.85 6.74 13.81 16.31 11.22 26.77-2.52 10.15-10.46 16.62-22.26 18.13a4.23 4.23 0 0 0-.81.36ZM144 359.92h60.32V300h35.54v-71.6H36.2v83.53h60v-11.59H144Zm96-179.91c.06-.94.14-1.54.14-2.14 0-17.5-.05-35 0-52.51 0-3.7-2.58-4.4-5.13-5.25a10.27 10.27 0 0 0-3-.06H44.14c-.88 0-1.76-.06-2.63 0a5.62 5.62 0 0 0-5.49 6v50.63c0 1.08.13 2.15.21 3.21h71.83v-47.57h60.19V180Zm-228-77.5a11.39 11.39 0 0 0 6.69 10.09c4.92 2.36 9.34 1.3 13.71-1.7q51.13-35.1 102.3-70.14c2.6-1.79 4.29-1.69 6.83.06q47.85 32.94 95.83 65.67c2.89 2 5.69 4.11 8.7 5.86a12.17 12.17 0 0 0 16-3.66 11.88 11.88 0 0 0-2.61-16.11c-.78-.63-1.62-1.18-2.44-1.74Q201.64 53 146.27 15.07c-6.09-4.17-10.42-4.1-16.55.09l-38 26q-36.49 25-73 49.91c-4.03 2.75-6.64 6.09-6.72 11.44Zm240.25 209.38h83.57v-95.58h-83.57Zm0-107.91c1 .05 1.62.11 2.23.11h97.4c3.42 0 6.12-1.07 7.61-4.33s.23-6-1.95-8.54c-9.37-10.89-18.75-21.77-28-32.75a6.25 6.25 0 0 0-5.38-2.47c-22.86.08-45.71 0-68.56.06-1.08 0-2.16.13-3.35.21ZM58 107.85h159.6a17 17 0 0 0-1.39-1.28Q178 80.43 139.79 54.38a4.29 4.29 0 0 0-3.79.26c-6.07 3.94-12 8.09-18 12.18Zm302 216.59H252.4V360H360Zm-347.68-.11v35.56h83.51v-35.56Zm143.59-180H120.3v35.47h35.57ZM132 312.39h-23.7v47.5H132ZM216.25 360h23.6v-47.56h-23.6Zm-180-167.73v23.53h23.57v-23.55Zm36 0v23.55h23.59v-23.56Zm35.9 23.67h23.65v-23.6h-23.61Zm36-.09h23.54v-23.56h-23.47Zm72.05 0h23.54v-23.58h-23.47Zm-36.05 0h23.55V192.3h-23.48Z"/><path d="M191.92 240.4v47.53H84.22V240.4Zm-95.59 11.87V276h35.49v-23.73ZM179.79 276v-23.57h-35.53V276ZM59.89 264.43v11.48H48.22v-11.48ZM48.25 288.22h11.48v11.67H48.25ZM48.2 251.92V240.4h11.58v11.52ZM264.36 240.29h59.56v47.56h-59.56Zm47.64 12.1h-35.6v23.55H312ZM264.28 336.33h11.56V348h-11.56ZM288.26 347.91v-11.53h11.54v11.53ZM324 336.46V348h-11.71v-11.54ZM348 336.37v11.56h-11.66v-11.56ZM35.7 348.1H24.3v-11.67h11.4ZM59.71 348.1H48.3v-11.67h11.41ZM83.82 348H72.31v-11.58h11.51Z"/>
</svg>