<svg xmlns="http://www.w3.org/2000/svg" viewBox="0 0 384 340.61" id="security_camera">
    <path d="M384 212.39q-17.88 22.55-35.78 45.08c-5.76 7.23-11.62 14.38-17.41 21.58-6.74 8.37-11.54 9-20.36 2.63-13.47-9.71-26.94-19.4-40.73-29.32-5.09 4.05-10.13 8.07-15.18 12.07-6.21 4.92-10.49 5.05-16.93.46-14.73-10.51-29.45-21-44.46-31.77-.81 1.08-1.57 2-2.24 3-5.85 8.56-11.65 17.14-17.53 25.68-4.69 6.83-10.82 7.91-17.69 3.2-3.28-2.24-6.55-4.51-10-6.89-33.18 36-74.57 51-123.22 48.25 0 8 .08 15.51 0 23A11 11 0 0 1 14.64 340a10.89 10.89 0 0 1-12.09-3.62 46.11 46.11 0 0 1-2.55-4V211.64c.38-.61.79-1.2 1.12-1.82 2.6-4.83 7.61-7.32 12.46-6.17a11.25 11.25 0 0 1 8.89 11.08c.1 6.75 0 13.5 0 20.25v3.71c24 1.63 46.9.55 65.84-16.48.72-.65 1.53-1.2 2.68-2.11-2.74-1.91-5-3.44-7.19-5-6.13-4.37-7.3-10.74-3-17 6.91-9.93 13.91-19.8 21.08-30-1.2-.91-2.24-1.74-3.32-2.52Q73.94 148 49.24 130.31c-12.31-8.83-14.24-22.66-4.75-34.5Q78.84 53 113.27 10.2c9.53-11.84 21.53-13.42 33.89-4.5q106.62 77 213.22 154c7.75 5.6 8 13.64.58 19.7-1.63 1.34-3.29 2.66-5.36 4.34l9.95 6.84c3.61 2.47 7.44 4.68 10.76 7.48 2.86 2.42 5.15 5.51 7.69 8.31ZM61.16 111c.75.65 1.09 1 1.48 1.28q90.25 64.45 180.46 129c2.18 1.56 3.35.95 5.09-.45q38.31-30.7 76.7-61.3c3.77-3 7.52-6.07 11.53-9.3L132.15 22.61Zm48.64 122.14a11 11 0 0 0-1.23.88C89.38 253.36 66 262.1 38.94 261.58c-5.34-.1-10.69 0-16.18 0v22.21c40.64 2.68 75.6-9 104.26-38.69Zm208.06 26.13 38.47-47.69c-5.76-3.93-11.27-7.55-16.6-11.42-2-1.47-3.28-1.25-5.13.25-14.67 11.85-29.43 23.58-44.15 35.35-.73.59-1.41 1.23-2.36 2.07Zm-157.45-18.39 14.27-20.94-54.34-38.83-15.1 21.45Z"/><path d="M293.23 159A11.24 11.24 0 1 1 282 147.9a11.35 11.35 0 0 1 11.23 11.1Z"/>
</svg>