<svg xmlns="http://www.w3.org/2000/svg" viewBox="0 0 364.77 383.32" id="security_box">
    <path d="M124.77 383.32H67.12C55.39 379.16 51 370.63 52 358.59c.45-5.67.08-11.4.08-17-.79-.2-1.14-.33-1.51-.39-18.32-2.92-27.33-13.4-27.34-31.85v-46c0-1.32-.12-2.65-.2-4.26h-6.6C6.3 259 .24 253.14.12 243.13q-.12-10.84 0-21.71C.24 211.5 6 205.74 16 205.48c2.31-.06 4.62 0 6.86 0V135.6h-7.77C6.88 135.46.61 130 .27 121.84c-.36-8.6-.36-17.23 0-25.82C.6 88 6.71 82.5 14.72 82.26c2.7-.09 5.41 0 8.5 0v-4.95c0-15.59-.06-31.19 0-46.78C23.34 12.13 35.49 0 53.78 0Q194 0 334.18.05a37.08 37.08 0 0 1 10 1.27c13 3.71 20.62 14.79 20.62 29.88v278.86c0 1.5-.06 3-.17 4.49a28.64 28.64 0 0 1-21.94 25.82c-2.14.51-4.34.74-6.7 1.14 0 7.83.15 15.44 0 23-.2 8-4.23 13.61-11.32 17.13-1.19.59-2.42 1.1-3.63 1.65H263.3c-10.44-3.49-15.94-10.5-15.55-21.75.1-2.87 0-5.73 0-8.6v-11.42h-107.5V363c0 6.46-2.06 12.1-7.32 16-2.43 1.86-5.42 2.92-8.16 4.32Zm192.28-335.9h-28.53c-3.57 0-6.39-1.18-7.87-4.57-2.29-5.23 1.5-10.44 7.78-10.5 11.48-.1 23 0 34.44 0 6.83 0 9.41 2.64 9.41 9.59v257.51c0 6.75-2.51 9.33-9.23 9.33H65.11c-6.93 0-9.37-2.52-9.38-9.55v-39.89h-17.1a12.39 12.39 0 0 0-.18 1.4v49.78c0 10.35 5.29 15.58 15.74 15.58h279.64c10.61 0 15.8-5.23 15.8-15.89V30.99c0-10.68-5.21-15.91-15.79-15.91H54.17c-10.44 0-15.73 5.22-15.75 15.58V78.2c0 1.21.12 2.42.18 3.72h17.13V42.73c0-8.15 2.26-10.39 10.48-10.39h153.86c4.59.32 7.7 3.38 7.71 7.56s-3.14 7.22-7.72 7.47c-1.25.07-2.5 0-3.74 0H71.09V82c10.47 1.42 15.06 6.69 15.1 17.13v18.34c0 11.65-3.69 16.18-15.2 18.55v69a6.87 6.87 0 0 0 1.16.47c10 1.93 14 6.75 14 17v18.34c0 11.61-3.78 16.24-15.19 18.51v34.05h246.09ZM125 341.55H67.42a5.09 5.09 0 0 0-.25 1v15c0 10.75 0 10.75 10.56 10.75h41.52c2.86 0 5.61-.46 5.7-3.89.18-7.59.05-15.16.05-22.86Zm138-.06c0 7.68-.07 15.13 0 22.58 0 2.67 1.72 4.14 4.35 4.15q24.51.06 49 0c2.44 0 4.35-1.26 4.41-3.69.19-7.67.07-15.36.07-23.05ZM15.46 120.31h55.28V97.49H15.46Zm55.41 100.61h-55.3v22.8h55.3Zm-15.32-85.1H38.64v69.33h16.91Z"/><path d="M138.78 214.79C128.35 198.87 128 198 123.5 178.16h-14.78c-5.53 0-8.82-2.77-8.92-7.38-.09-4.76 3.24-7.62 9-7.65h14.24c2-6.74 3.35-13.35 5.89-19.48s6.19-11.59 9.77-18.09c-3.1-3-6.72-6.34-10.23-9.83-4-4-4.34-8.56-1-11.8s7.58-2.77 11.53 1.09c3.4 3.31 6.74 6.66 10.12 10a3.81 3.81 0 0 0 .9.4 72.12 72.12 0 0 1 36.38-15c0-5.13-.28-10.11.12-15 .2-2.43 1.06-5.46 2.74-6.91s4.81-1.79 7.14-1.46c3.09.44 4.85 3.08 5 6.22.23 4.86 0 9.74.3 14.58.06 1 1.35 2.76 2.27 2.89a72.28 72.28 0 0 1 34.53 15.14c3.53-3.64 6.94-7.4 10.62-10.86a12 12 0 0 1 5.37-3c3.23-.67 5.89.87 7.42 3.82a7 7 0 0 1-1.13 8.66c-3.82 3.93-7.85 7.65-12 11.64a72.76 72.76 0 0 1 15.45 37.05h15.42c5.29 0 8.45 2.8 8.53 7.33.07 4.7-3.18 7.64-8.6 7.69h-15.31a73 73 0 0 1-15.64 37.07c3.69 3.46 7.38 6.78 10.92 10.26 3.95 3.89 4.28 8.68 1 11.83s-7.55 2.78-11.55-1.18c-3.52-3.51-7-7.11-10.52-10.78a71.92 71.92 0 0 1-31.29 14.47 18.8 18.8 0 0 1-2.95.45c-2.15 0-2.72 1.15-2.68 3.12q.13 6.36 0 12.72c-.12 5.24-3 8.53-7.39 8.65s-7.64-3.35-7.75-8.69c-.09-4.24.13-8.49-.13-12.71-.06-1-1.31-2.78-2.2-2.92a71.22 71.22 0 0 1-33.34-14.2 11 11 0 0 0-1.5-.68c-3.34 3.46-6.75 7.09-10.27 10.61-4 3.94-8.21 4.28-11.55 1.06s-3-7.8 1-11.84c3.23-3.29 6.51-6.54 9.76-9.81a5.67 5.67 0 0 0 .59-.85Zm110.73-42.58c1.41-28.75-22.6-55.44-51.18-56.91-32.41-1.65-58.41 21.58-59.86 53.49-1.34 29.54 22.73 55.76 52.53 57.21 31.22 1.55 57-22.11 58.51-53.79ZM253.87 47.37a7.49 7.49 0 0 1-7.51-7.58 7.66 7.66 0 0 1 7.75-7.42 7.57 7.57 0 0 1 7.29 7.47 7.4 7.4 0 0 1-7.53 7.53Z"/><path d="M193.93 205.36a34.82 34.82 0 1 1 34.93-34.5 34.75 34.75 0 0 1-34.93 34.5Zm.07-15.11a19.67 19.67 0 1 0-19.77-19.67A19.74 19.74 0 0 0 194 190.25Z"/>
</svg>