<svg xmlns="http://www.w3.org/2000/svg" viewBox="0 0 384 303.55" id="townhouse_category">
    <path d="M384 235.05v58.5c-3.14 7.57-8.84 10-16.9 10q-175.1-.24-350.21 0c-8 0-13.77-2.4-16.89-10V67.78c1.56-2.65 2.7-5.68 4.74-7.89Q29.9 32.59 55.36 5.58c7-7.44 17.5-7.38 24.68-.11 3.86 3.92 7.53 8 11.3 12 .61.65 1.34 1.18 2.42 2.1V15.2c.06-7.81 3.95-11.72 11.77-11.8h7.5c7.57.11 11.47 4.06 11.49 11.68 0 10.88.31 21.77-.12 32.63-.21 5.08 2 8.09 5.72 10.78.78-.82 1.47-1.54 2.15-2.27C148 39.43 163.6 22.56 179.38 5.83c7.3-7.76 17.78-7.7 25.2-.07 3.75 3.85 7.34 7.85 11 11.75a25.54 25.54 0 0 0 2.46 2v-4.8c.12-7.34 4-11.18 11.47-11.29h7.13c8.27.05 12.14 3.9 12.16 12.21 0 10.62.33 21.26-.13 31.87-.22 5 1.81 8.14 5.75 11.25.95-1.13 1.79-2.21 2.72-3.21l45-48.24c9.2-9.83 19.13-9.72 28.32.23 3.62 3.91 7.27 7.79 11.67 12.49v-5.37c.23-7.17 4.15-11.07 11.27-11.22 2.38-.05 4.75 0 7.13 0C369.25 3.45 373 7.11 373 15.7c0 11.38-.09 22.76.11 34.13a11.51 11.51 0 0 0 2.19 5.59c2.75 4.22 5.79 8.25 8.71 12.36V213.3c-2.08 2.3-4.38 4.23-7.74 2.86s-3.57-4.38-3.53-7.53c.08-6.72 0-13.44 0-20.33H259.92V292H279v-4.27c0-12-.16-24 .08-36 .39-19.76 17-35.88 36.83-36.08s36.76 15.55 37.4 35.39c.39 12.24.13 24.5.16 36.75v4.43c5.28 0 10.13-.2 15 .07 3.56.19 4.43-1.2 4.4-4.57-.15-16.5-.05-33-.08-49.5 0-2.76.85-5.39 3.55-5.87 2-.36 4.29.88 6.41 1.52.46.13.82.76 1.25 1.18ZM11.26 188c0 34.15 0 67.76.08 101.38 0 .9 1.17 2.55 1.85 2.58 5.68.2 11.37.11 17.35.11 0-11.24-.05-22 0-32.7 0-4.36-.16-8.82.61-13.07 3.46-19 20.74-32.27 39.39-30.62A37.31 37.31 0 0 1 105 253c.1 9.75 0 19.5 0 29.25v9.65h19V188.05h-4c-3.75 0-7.5.08-11.24-.11a5.1 5.1 0 0 1-5.21-5.31c-.12-3.17 1.73-5.15 4.86-5.65a31.47 31.47 0 0 1 4.86-.17h10.81c.08-1.35.16-2.09.16-2.82 0-33.62.07-67.24-.12-100.86a11.31 11.31 0 0 0-2.93-6.88c-15.89-17.31-32-34.44-48-51.6-4.29-4.58-6.77-4.5-11.17.21Q38.27 40.31 14.43 65.77a11.3 11.3 0 0 0-3.24 8.37c.1 32.75.06 65.49.06 98.24v4.41h68.86a16 16 0 0 1 4.44.42c2.74.8 4.49 3 3.71 5.64-.56 1.91-2.55 3.66-4.32 4.87-1 .72-2.91.3-4.4.3H16.18Zm361.32-11.46c.06-1.16.16-2.13.16-3.11 0-33.48.07-67-.12-100.44a11.24 11.24 0 0 0-2.91-6.87C353.91 49 337.91 31.93 322 14.87c-4.5-4.82-6.92-4.83-11.43 0-15.87 17-31.68 34-47.6 50.92a11.35 11.35 0 0 0-3.29 8.38q.12 49.27.05 98.57v3.84Zm-124.32.07c.07-1.14.17-2 .17-2.83 0-33.62.06-67.24-.12-100.86a11.31 11.31 0 0 0-2.93-6.85C229.67 49 213.77 32 197.91 15c-4.65-5-7.15-5-11.72-.1-15.76 16.91-31.48 33.86-47.34 50.69a11.18 11.18 0 0 0-3.34 8.31c.09 32.87.05 65.74.05 98.61v4.11ZM248.14 292V188.28H135.77v103.63h18.9c0-8.39-.07-16.5 0-24.6.07-6.61-.13-13.28.6-19.83 2-17.93 18.43-31.93 36.84-31.86s35 14.07 36.51 32.12c1.09 13.16.52 26.45.69 39.69V292Zm-74.72.06v-4.39c0-11-.07-22 .05-33a26.47 26.47 0 0 1 1.11-7.73 18.34 18.34 0 0 1 19.9-12.42c9.46 1.51 15.92 8.87 16.06 18.76.16 11.5 0 23 0 34.49v4.09h7.34c0-13.91.23-27.51-.1-41.1-.17-7-3.45-13-8.9-17.53-8.23-6.81-17.53-8.42-27.31-4.09-10.23 4.53-15.41 12.87-15.63 24-.24 12.24-.06 24.49 0 36.73a12.58 12.58 0 0 0 .4 2.19Zm-79.66 0v-38.09c-.06-15.44-11.31-27.15-26-27.14-14.54 0-25.78 11.55-25.92 26.81-.1 11.87 0 23.75 0 35.62 0 .84.11 1.68.17 2.57h7.32v-36.64a29.65 29.65 0 0 1 .61-7.06 18.43 18.43 0 0 1 36.27 4.25c.17 11.87 0 23.74.06 35.62v4.06Zm248.1 0a7.87 7.87 0 0 0 .31-1.44c0-12.62.19-25.25 0-37.86a25.91 25.91 0 0 0-26.06-25.89c-14.43.09-25.75 11.68-25.83 26.57-.07 11.87 0 23.74 0 35.62 0 1 .15 1.92.23 2.82h7.26c0-12.79-.06-25.28.06-37.76a24.14 24.14 0 0 1 1.22-7.7 18.32 18.32 0 0 1 19.55-11.9c9.11 1.36 15.84 8.43 16 17.51.25 12 .08 24 .12 36 0 1.32.11 2.63.17 4Zm-142.74-27.2c0-4.5.29-8.84-.09-13.12a7.09 7.09 0 0 0-14-.16c-.4 4.38-.1 8.84-.1 13.28ZM75 264.94c0-4.43.16-8.52 0-12.59a7.16 7.16 0 0 0-6.81-6.7c-3.23-.19-6.91 2.09-7.2 5.26-.42 4.61-.11 9.29-.11 14Zm248.49 0v-3.65c0-3 .09-6-.11-8.94a7 7 0 0 0-6.76-6.69c-3.36-.18-7 2.22-7.31 5.64-.42 4.5-.1 9.06-.1 13.64ZM184.9 276.5v15.39h14.15V276.5Zm-124.13 0V292h14v-15.5Zm248.48-.08v15.5h13.92v-15.5ZM229.32 14.88c.46 9.33-2.95 19.39 8.07 25v-25Zm-124.25 0c.28 9.26-3 19.29 7.94 25v-25Zm248.94 0c-2.63 11.93.17 21.06 7.49 24.75V14.87Z"/><path d="M67.88 81.85H97.1c8.36 0 13 4.66 13 13q.07 25.86 0 51.7c0 8.15-4.67 12.87-12.72 12.88q-29.59.06-59.18 0c-8.15 0-12.74-4.65-12.76-12.78V94.58c0-8.09 4.61-12.66 12.82-12.71 9.89-.06 19.74-.02 29.62-.02Zm30.88 11.56H73.65v33.88h25.11ZM62 93.36H37v34h25Zm36.7 45.78H36.94V148h61.74ZM68.63 38.41a14.93 14.93 0 0 1 15.08 14.84 15.22 15.22 0 0 1-14.93 15.11 15 15 0 0 1-15-15 14.74 14.74 0 0 1 14.85-14.95Zm4.31 15.87v-1.64c-1.33-1-2.55-2.5-4-2.81a2.9 2.9 0 0 0-3.69 3.41c.26 1.42 2 3.46 3.24 3.56 1.4.12 2.96-1.6 4.45-2.52ZM315.9 159.43h-29.21c-8.06 0-12.79-4.73-12.81-12.8q-.08-26 0-52.07c0-7.89 4.73-12.65 12.56-12.68q29.78-.09 59.56 0c7.93 0 12.52 4.69 12.53 12.61q.06 26 0 52.08c0 8.34-4.58 12.83-13 12.86-9.9.02-19.76 0-29.63 0Zm-5.49-66.08h-25v34h25Zm36.66 34.06v-34h-25v34Zm-61.78 20.5h61.79v-8.71h-61.79ZM317.11 38.41a14.93 14.93 0 0 1 15.1 14.82 15 15 0 1 1-30 .18 14.83 14.83 0 0 1 14.9-15ZM321.53 54l-.08-1.74c-1.53-.85-3.15-2.48-4.57-2.32-1.24.13-3.2 2.36-3.11 3.53s2.17 3.32 3.41 3.34c1.43.03 2.9-1.81 4.35-2.81ZM191.9 159.43h-29.59c-7.93 0-12.54-4.58-12.58-12.56q-.1-26.22 0-52.44c0-8 4.62-12.53 12.59-12.55q29.77-.09 59.55 0c7.74 0 12.35 4.61 12.39 12.37q.13 26.4 0 52.82c0 7.76-4.69 12.31-12.39 12.35-9.99.05-19.98.01-29.97.01Zm5.74-66.14c0 10.89 0 21.36.07 31.83 0 .82 1 2.33 1.54 2.34 7.81.15 15.62.1 23.45.1V93.29Zm-36.48 34.3H184c2.17 0 2.39-1.19 2.38-2.87V93.33h-25.22Zm0 20.26h61.61v-8.73h-61.65ZM193.05 38.41a14.74 14.74 0 0 1 14.81 15 15 15 0 0 1-15 14.93 15.26 15.26 0 0 1-14.93-15.15 15 15 0 0 1 15.12-14.78Zm4.15 15.69-.06-1.68c-1.38-.91-2.66-2.36-4.14-2.61a3 3 0 0 0-3.6 3.6c.27 1.39 2.2 3.33 3.48 3.4s2.88-1.73 4.32-2.71Z"/>
</svg>