<svg xmlns="http://www.w3.org/2000/svg" viewBox="0 0 384 384" id="tub">
    <path stroke-width="10" stroke="#89725b" d="M92.25 0c2.54.61 5.1 1.14 7.6 1.85 21.17 6 35.36 24.79 35.63 47.37 0 3 .7 4.45 3.9 5.43A37.1 37.1 0 0 1 165.58 89c.22 5.24.16 10.5 0 15.75-.1 5.07-2.82 8.1-7.86 8.13q-29.79.19-59.6 0c-4.35 0-7.44-2.45-7.51-6.33-.11-7.88-.61-15.91.72-23.55 2.67-14.78 12.12-24.23 26.36-28.82 1.7-.55 2.8-.87 2.91-3.06 1-17.83-11.78-33.19-29.92-35.88-16.62-2.47-33.34 9.26-37.15 26.2a37.38 37.38 0 0 0-.89 8.17q-.09 60.36 0 120.72c0 .74.07 1.49.13 2.71 1.19.06 2.37.18 3.55.18q70.11 0 140.21.06a5.63 5.63 0 0 0 5.18-2.68c5.89-8.09 14-12.33 24-12.38 17.62-.09 35.24-.06 52.86 0 10.35 0 18.59 4.38 24.59 12.74a4.89 4.89 0 0 0 4.59 2.31c16-.07 32 0 48 0 14.59 0 23.66 6.86 27.72 20.87a3.62 3.62 0 0 0 .6.9v9a6.54 6.54 0 0 0-.67 1.28c-2.64 10.36-9.09 17-19.43 19.71-2.35.6-2.48 1.83-2.48 3.73.05 13 .13 26 0 39a94.19 94.19 0 0 1-1.11 15.67c-6 33.17-30.24 56.85-63.53 62.15-2.67.42-3.19 1.41-3.16 3.79.11 8.37-.07 16.75.09 25.12.08 4.5-1.47 7.75-5.69 9.55H253.5c-1.86-2.52-4.26-4.81-5.48-7.61-3.93-9-7.47-18.22-11-27.4-.74-1.91-1.67-2.64-3.79-2.63q-41.2.11-82.41 0c-2.12 0-3 .73-3.78 2.63-3.56 9.18-7.11 18.37-11 27.4-1.22 2.8-3.62 5.09-5.48 7.61H96c-4.22-1.8-5.77-5-5.69-9.55.17-8.37 0-16.75.09-25.12 0-2.36-.47-3.36-3.15-3.79-38.34-6.11-64.63-37-64.69-75.93 0-13.5-.07-27 0-40.5 0-2.51-.5-3.64-3.21-4.3a23.55 23.55 0 0 1-15-11C2.53 210.76 1.43 207.28 0 204v-9c.16-.18.4-.34.47-.55C5 179.58 13.58 173.23 29 173.22h8.6v-5.1c0-39.58-.06-79.17 0-118.76A48.93 48.93 0 0 1 73.12 1.91C75.48 1.22 77.87.63 80.25 0Zm216.49 226v4.24c0 8.25.1 16.5 0 24.75-.26 17.67-12.2 30.51-29.47 30.92q-27 .63-54 0c-17.1-.39-29.33-13.42-29.46-30.54-.07-8.5 0-17 0-25.5v-3.83H37.55v44.08c.1 34.65 26.61 61.23 61.33 61.27q93.18.12 186.35 0c34.66-.05 61.1-26.68 61.2-61.41v-40.12c0-1.21-.11-2.43-.17-3.83Zm-15.43 7.15a5.25 5.25 0 0 0 .37-1.25c0-14.62.24-29.24-.05-43.85-.18-9.09-6.66-14.85-15.88-14.87h-50.61c-10.17 0-16.33 6.16-16.36 16.32v40.48c0 1.08.14 2.15.21 3.17Zm-97.67-44.95H28.75a21 21 0 0 0-5.56.5 11.24 11.24 0 0 0-8.1 12.35c.83 5.85 5.65 9.71 12.29 9.71h165c1.07 0 2.14-.15 3.41-.24v-19.74c-.02-.69-.09-1.41-.15-2.56Zm15.14 60.37v4.57c0 12.21 5.64 17.9 17.79 17.91 16.11 0 32.22-.24 48.32.09 11.15.22 19.47-8.15 16.19-22.57Zm98.12-37.83h49.86a8 8 0 0 0 2.54-.55 11.36 11.36 0 0 0 7.59-12.36 11.23 11.23 0 0 0-10.89-9.55c-15.86-.11-31.73 0-47.59 0a6.75 6.75 0 0 0-1.49.35ZM150.45 97.7c1.12-11.57-1.11-21.33-11.63-27.12-8.42-4.64-16.88-3.9-24.58 1.9-8.47 6.38-9.67 15.35-8.58 25.22ZM105.58 369h3.84c4.47-.09 9.93 1.33 13.11-.74 3-2 3.67-7.59 5.31-11.62 1.33-3.26 2.59-6.54 4-10.07h-26.26Zm146.58-22.42c2.88 7.23 5.59 14.17 8.45 21a3 3 0 0 0 2.26 1.32c5.1.11 10.2.06 15.43.06v-22.38Z" data-name="Capa 1"/>
</svg>