<svg xmlns="http://www.w3.org/2000/svg" viewBox="0 0 376.55 314.81" id="tv">
    <path stroke-width="10" stroke="#89725b" d="M333.64 240.31c0 15.46.07 30.83 0 46.19-.07 11.81-5.15 20.75-16 25.83-17.1 8-37.39-4.36-37.86-23.24-.38-14.75-.11-29.51-.13-44.26v-4.74h-40.16v26.52h17.73c2.74.13 4.59 1.39 4.66 4.31.07 3.12-1.88 4.42-4.76 4.62-1 .07-2 0-3 0H122.49a29.31 29.31 0 0 1-3.75-.11c-2.57-.33-4.12-1.79-4.08-4.48a4 4 0 0 1 4.23-4.31c5.12-.14 10.25-.07 15.37-.11.86 0 1.72-.09 2.84-.16V239.8H15.71C4.75 239.79 0 235 0 224V15.45C0 4.93 4.86 0 15.29 0h345.77c10.69 0 15.49 4.85 15.49 15.63v208.54c0 10.75-4.83 15.6-15.51 15.63q-13.12 0-26.25.08a5.1 5.1 0 0 0-1.15.43Zm8.41-206H95.29a23.57 23.57 0 0 1-4.12-.11c-3.49-.63-5.18-4.81-2.68-7.1a8.63 8.63 0 0 1 5.4-1.72q125.45-.12 250.9-.06c5.18 0 6.4 1.22 6.41 6.4v175.95c0 5.69-1.09 6.74-6.81 6.75h-10.54v16.37h26.73c6.09 0 7-.86 7-6.87V16.12c0-6.37-.74-7.12-7.08-7.12H16.18C9.76 9 9 9.74 9 16v207.82c0 6.11.84 7 6.85 7h259.53c1.33 0 2.65-.11 4-.17v-16.2H32.69c-6.44 0-7.35-.9-7.35-7.36V31.91c0-5.41 1.17-6.55 6.62-6.56h28.88c3 0 5.25 1.12 5.29 4.43S64 34.33 61 34.34H34.55v170.82h245.09V191.8c.05-9 4.59-13.49 13.67-13.52h26.26c9.43 0 14 4.61 14.07 14v12.94h8.41ZM324.29 283a6.11 6.11 0 0 0 .31-1.29v-90.36c0-3.06-1.53-4.14-4.47-4.11-8.74.09-17.49 0-26.24 0-4.94 0-5.29.38-5.3 5.41v86.62c0 1.21.12 2.42.2 4 5.24 0 10.23-.29 15.16.17a6 6 0 0 1 4.24 3.59c.35 1.27-1.25 3.45-2.53 4.65-.8.75-2.61.53-4 .55-4 .06-8.08 0-12.25 0a17.59 17.59 0 0 0 18.05 13.46c8.08-.59 15.11-6.48 15.77-13.21-6.81-.68-8.76-1.73-8.41-5 .77-5.9 5.88-3.48 9.47-4.48ZM230 240.14h-83.41v26.12H230Z"/><path d="M141.72 120.33c.85-15.32 9.13-29.83 26.35-38.08s34-6.44 49 5.32 20.25 27.7 16.71 46.36a8.08 8.08 0 0 1-3.89 5.22c-3.15 1.39-5.85-2-5-6 2.6-12.24.27-23.33-7.67-33.07a37.53 37.53 0 0 0-43.82-10.42c-15.4 6.75-24.77 23.24-22.4 39.2 2.57 17.24 15.36 30.37 32.13 32.31 4.73.55 9.67-.14 14.45-.75 4.07-.53 6.37 0 7.13 2.76.83 2.95-.89 5.09-4.93 6.13-29.42 7.56-58.16-14.9-58.06-48.98Z"/><path d="M178.17 123.87c0-5.49-.22-11 .12-16.45.11-1.84 1.18-4.49 2.58-5.14s4.16.13 5.67 1.2c7.32 5.18 14.44 10.64 21.6 16 4 3 4.11 6 .19 9-7.24 5.51-14.47 11-21.89 16.29-1.48 1.06-4.26 1.76-5.65 1.06s-2.4-3.34-2.51-5.18c-.28-5.55-.11-11.17-.11-16.78Zm21.06.24-11.71-8.78v17.55ZM216.86 159.36c-1.08-.88-2.78-1.63-3.3-2.87a5.63 5.63 0 0 1 .34-4.49 16.2 16.2 0 0 1 5-5.48c1.45-.88 4.42-1 5.57-.11s1.73 4.11 1 5.42c-1.83 3.17-4.07 6.31-8.61 7.53ZM297.65 196.34a5.2 5.2 0 0 1 5.16 5.22 5.39 5.39 0 0 1-5.3 5.17 5.24 5.24 0 0 1-5.08-5.32 5 5 0 0 1 5.22-5.07ZM297.54 218.84a5.23 5.23 0 0 1 5.28 5.11 5.4 5.4 0 0 1-5.2 5.29 5.23 5.23 0 0 1-5.18-5.21 5 5 0 0 1 5.1-5.19ZM320.82 224a5.41 5.41 0 0 1-5.25 5.24 5.23 5.23 0 0 1-5.13-5.26 5 5 0 0 1 5.15-5.14 5.22 5.22 0 0 1 5.23 5.16ZM297.71 247.24a5.23 5.23 0 0 1-5.27-5.11 5 5 0 0 1 5-5.29 5.28 5.28 0 0 1 5.39 5 5.43 5.43 0 0 1-5.12 5.4ZM320.82 242.08a5.42 5.42 0 0 1-5.32 5.17 5.26 5.26 0 0 1-5.06-5.34 5 5 0 0 1 5.22-5.06 5.23 5.23 0 0 1 5.16 5.23ZM302.81 261.67a5.41 5.41 0 0 1-5.4 5.08 5.27 5.27 0 0 1-5-5.42 5 5 0 0 1 5.32-5 5.22 5.22 0 0 1 5.08 5.34ZM315.67 266.74a5.23 5.23 0 0 1-5.23-5.16 5 5 0 0 1 5.05-5.23 5.24 5.24 0 0 1 5.33 5.07 5.39 5.39 0 0 1-5.15 5.32Z"/>
</svg>