<svg xmlns="http://www.w3.org/2000/svg" viewBox="0 0 163.54 183.16" id="verified">
    <path d="M80.34 0h2.87c.6.23 1.18.51 1.79.68q35.44 9.87 70.9 19.71c3.79 1.05 5.2 2.72 5.64 6.64a304.41 304.41 0 0 1 1.91 41.61 188.91 188.91 0 0 1-4.75 39.5c-2.29 9.55-5.35 18.84-10.81 27.08-14.32 21.63-33.89 36.7-58.14 45.78-7.91 3-8 2.81-16 0-.39-.14-.77-.31-1.16-.46a120 120 0 0 1-45.08-30.15c-10.47-11.08-18-23.74-21.8-38.63a186.89 186.89 0 0 1-5.4-37.22A298.94 298.94 0 0 1 2 26.68a6.74 6.74 0 0 1 5.43-6.27q29-8 58-16.11c5.01-1.38 9.96-2.86 14.91-4.3Zm-5.62 93.85a16 16 0 0 0-1.38-2.08Q64 82.38 54.62 73c-3-3-6.36-3-9.42 0a266.35 266.35 0 0 0-5.31 5.32c-2.9 3-2.89 6.3.08 9.28q15.11 15.14 30.24 30.24c2.9 2.88 6.27 2.9 9.15 0Q104.17 93.12 129 68.3c2.79-2.79 2.76-6.19 0-9-1.57-1.64-3.2-3.22-4.8-4.82-3.78-3.77-6.82-3.79-10.57-.05Q95 73.06 76.29 91.73a21.11 21.11 0 0 0-1.57 2.12Z" data-name="Capa 1"/>
</svg>