<svg xmlns="http://www.w3.org/2000/svg" viewBox="0 0 372.12 371.75" id="villa_category">
    <path d="M23.75 197.89C12 197 12 197 12 185.19v-9.75c0-5.67 2-7.72 7.62-7.75h16.2v-30h-16c-5.87 0-7.84-2-7.87-7.88v-14.26c0-5.88 2-7.85 7.89-7.86h159.98V73.15c-2.91 1.24-5.61 2.45-8.36 3.57-5.41 2.21-9.33-.26-9.39-6-.09-7.37 0-14.75 0-22.12a6.64 6.64 0 0 1 4.32-6.76C197.9 28 229.44 14.19 261.07.53a9 9 0 0 1 6.39.12c31.38 13.58 62.68 27.35 94 41 3.28 1.43 4.69 3.75 4.63 7.32-.12 7.13 0 14.25-.05 21.38-.05 6.08-3.88 8.62-9.45 6.32-2.74-1.13-5.43-2.36-8.41-3.66v94.69c1.88 0 3.7-.07 5.51 0 3.83.17 6.22 2.29 6.31 6q.23 9 0 18c-.09 3.55-2.41 5.73-6 5.95-1.84.12-3.69 0-5.75 0v144.09h4.18c21.69 0 19.59-2 19.61 19.79V363c0 7-1.74 8.71-8.54 8.72H9.52c-8.12 0-9.5-1.4-9.5-9.63v-13.5c0-4.5 2.27-6.81 7-6.86 5.49-.06 11 0 16.73 0Zm312.06 143.77V198H192.26v143.49h5.79v-75.23c0-6.83 1.75-8.54 8.7-8.54h49.13c6.33 0 8.18 1.89 8.18 8.33v75.61Zm-.05-174.11a5.87 5.87 0 0 0 .27-1.08q0-48.18.1-96.36c0-2.3-1.19-3-2.88-3.69-22.07-9.62-44.11-19.34-66.25-28.85a8.22 8.22 0 0 0-5.86 0c-22 9.47-43.91 19.17-65.9 28.67-2.44 1-3.28 2.25-3.28 4.92.1 31 .07 62 .08 93 0 1.08.12 2.17.2 3.37ZM60.3 257.88v83.56h95.54v-83.56Zm119.48 83.67V197.88H36.24v143.59h11.68v-83.42c-5.07-2-5.88-3.14-5.89-8.33 0-5-.05-10 0-15 .05-4.71 2.22-7 6.85-7q59.07-.06 118.13 0c4.84 0 7 2.25 7 7.22.05 4.75-.15 9.51.06 14.25.2 4.55-1.12 7.86-5.87 8.72v83.64Zm72 0V270h-41.53v71.55ZM359.91 354H12.19v5.55h347.72ZM174.05 62.37c1.65-.67 2.9-1.15 4.13-1.69 26.82-11.75 53.74-23.46 80.54-35.34a12 12 0 0 1 10.67 0c20.27 9.05 40.64 17.9 61 26.81 7.74 3.39 15.49 6.74 23.7 10.31a64.26 64.26 0 0 0-.1-8.3 5.08 5.08 0 0 0-2.27-3.48q-42.61-18.85-85.36-37.4a5.8 5.8 0 0 0-4.16-.1q-43.1 18.67-86.08 37.62a3.81 3.81 0 0 0-2 2.58c-.24 2.79-.07 5.62-.07 8.99ZM24.21 185.49h323.61V180H24.21Zm0-60.07h155.67v-5.56H24.19Zm47.67 12.52H48.32v29.55h23.54Zm12.44-.09v29.54h23.54v-29.54Zm59.58.1h-23.56v29.54h23.54Zm12.32 29.46h23.67v-29.52H156.2Zm-102 78.05h107.66v-5.56H54.19Z"/><path d="M300.06 257.72h22.87c4.91 0 7.11 2.21 7.12 7.11q.07 19.88 0 39.76c0 4.9-2.22 7.1-7.11 7.12q-22.87.06-45.75 0c-4.9 0-7.1-2.22-7.11-7.12q-.07-19.87 0-39.76c0-4.91 2.19-7.08 7.1-7.11 7.63-.04 15.25 0 22.88 0ZM317.9 270h-35.54v29.55h35.54ZM228.05 131.68h-22.5c-5.38 0-7.48-2.12-7.49-7.5v-39c0-5.39 2.1-7.48 7.49-7.49h45c5.38 0 7.49 2.11 7.5 7.49v39c0 5.38-2.12 7.48-7.5 7.5-7.5.02-15 0-22.5 0Zm-17.73-41.85v29.55h35.54V89.83ZM300 77.66h22.88c4.92 0 7.13 2.2 7.14 7.09q.07 19.88 0 39.75c0 4.92-2.2 7.14-7.08 7.15q-22.87.06-45.75 0c-4.92 0-7.13-2.2-7.14-7.09q-.07-19.87 0-39.75c0-4.93 2.19-7.11 7.08-7.14 7.65-.05 15.28-.01 22.87-.01ZM317.93 90h-35.66v29.47h35.66ZM234.1 305.59c0-2.13-.16-4.27 0-6.37a5.8 5.8 0 0 1 6.05-5.44c3.31.2 5.51 2.09 5.74 5.34a108.36 108.36 0 0 1 0 13.12 5.79 5.79 0 0 1-6 5.46 5.92 5.92 0 0 1-5.8-5.74c-.15-2.11 0-4.25 0-6.37Z"/>
</svg>