<svg xmlns="http://www.w3.org/2000/svg" viewBox="0 0 426.82 512" id="washing_machine">
    <path stroke-width="10" stroke="#89725b" d="M38 0h351c6.68 2.77 14 4.55 19.91 8.51 13.44 9 17.87 22.84 17.86 38.56q-.07 200.42 0 400.84a54 54 0 0 1-.33 6.48c-1.52 12.67-9.22 20.79-21.86 23.14-1.1.2-2.19.44-3.51.71 0 7.42-.23 14.57.08 21.71.23 5.35-1.31 9.43-6.11 12.05H32c-4.91-2.19-6.53-6.11-6.39-11.29.19-7.45.05-14.92.05-22.23C5 473 0 466.42 0 445.09V45.79c0-12.32 3.33-23.28 11.85-32.43C19 5.73 28.09 2.08 38 0ZM17 119.77v329.22c0 9.16 2.9 11.89 12.57 11.89h367.5c9.82 0 12.56-2.69 12.56-12.42V124.98c0-1.75-.19-3.49-.29-5.21Zm392.46-17.68c0-20.62.58-40.61-.19-60.55-.6-15.15-11.45-24.47-26.79-24.48q-169.23-.07-338.46 0c-16.18 0-26.88 10.85-27 27.07-.12 18.16 0 36.33 0 54.49a29.56 29.56 0 0 0 .39 3.46ZM43 494.63h340.66v-16.36H43Z"/><path d="M350 290.07c.06 75-60.85 136.06-136.36 136.63-74.93.56-136.81-61.35-136.7-136.7a136.46 136.46 0 0 1 136.44-136.29c75.04-.01 136.51 61.36 136.62 136.36Zm-17.05.05c0-65.64-53.34-119-119.28-119.34S94 224.18 94 290.12s53 118.93 119.09 119.48c65.3.53 119.78-53.79 119.81-119.48ZM94 85.26H45.52c-8.53 0-11.41-2.91-11.44-11.38 0-9.67-.07-19.33 0-29 .06-7.49 3.24-10.77 10.65-10.78q49-.09 98 0c7.71 0 10.85 3.18 10.93 11q.15 14.49 0 29c-.07 8.26-3 11.14-11.16 11.17-16.14.03-32.3-.01-48.5-.01Zm42.22-33.72H51.47v16.4h84.78ZM196.19 85.19a25.3 25.3 0 0 1-25.34-25.46 25.62 25.62 0 0 1 25.33-25.61C210.15 34 222.12 46 221.91 60a25.62 25.62 0 0 1-25.72 25.19Zm8.61-25.55a8.93 8.93 0 0 0-8.31-8.41A8.51 8.51 0 0 0 188 59.8a8.23 8.23 0 0 0 8.68 8.27 8.53 8.53 0 0 0 8.12-8.43ZM290.07 60a25.52 25.52 0 0 1-51-.21c0-14.12 11.91-25.91 25.89-25.62A25.7 25.7 0 0 1 290.07 60ZM273 59.47a8.44 8.44 0 1 0-16.88.51 8.44 8.44 0 0 0 16.88-.51ZM324.08 68.1c-2.83 0-5.67.15-8.49 0-4.7-.3-7.93-3.47-8.27-7.82-.3-4 2.44-8.18 6.77-8.53a119.45 119.45 0 0 1 20.37 0c4.75.42 7.21 4.43 6.63 9s-3.44 7.09-8 7.37c-3.01.13-6.01-.02-9.01-.02ZM375.58 68.07c-3 0-6 .18-9 0-4.59-.33-7.33-2.9-7.87-7.52-.5-4.29 1.86-8.31 6.31-8.71a118.89 118.89 0 0 1 20.84-.05c4.54.39 6.67 4 6.44 8.64-.21 4.25-3.22 7.27-7.75 7.62-2.97.2-5.98.02-8.97.02Z"/><path d="M102.43 289.53C103.33 226.94 153 179 213.58 179.3c66.87.37 113.36 55.18 110.51 115.52-2.8 59.54-51.74 107.2-112.67 106.11s-108.68-49.86-108.99-111.4Zm21.6 29c11.82-2.79 22.92-5.72 34.14-8 25.43-5.17 50.1-4.8 73.57 8.76 10.54 6.08 23 6.6 34.61 4 12.38-2.82 24.29-7.77 36.29-12.1 1.35-.49 2.59-2.85 2.87-4.51 5.41-32.55-3.12-61.14-26.95-83.85-48.56-46.3-125.46-30.12-151.8 31.43-8.99 21.02-9.36 42.59-2.76 64.27Zm172.45 15c-1-.33-1.34-.58-1.56-.5-1.56.57-3.08 1.23-4.64 1.81-19.45 7.23-39.16 9-59.18 2.59a63.38 63.38 0 0 1-11-4.59 67.35 67.35 0 0 0-40.44-8c-16.44 1.73-32.5 4.74-48.19 10.11 13.62 29 50.89 50.7 84.23 48.94 36.05-1.89 62.75-18.89 80.78-50.38Z"/>
</svg>